<svg width="291" height="44" viewBox="0 0 291 44" fill="none" xmlns="http://www.w3.org/2000/svg">
<rect width="291" height="44" rx="22" fill="url(#paint0_linear_4_143)"/>
<path d="M83.3253 20.456H88.8933V22.168H83.3253V20.456ZM83.4853 25.256H89.8053V27H81.4053V15.8H89.5813V17.544H83.4853V25.256ZM103.196 18.36C103.879 18.36 104.481 18.4933 105.004 18.76C105.537 19.0267 105.953 19.4373 106.252 19.992C106.551 20.536 106.7 21.24 106.7 22.104V27H104.7V22.36C104.7 21.6027 104.535 21.0373 104.204 20.664C103.873 20.2907 103.399 20.104 102.78 20.104C102.343 20.104 101.953 20.2 101.612 20.392C101.281 20.584 101.02 20.8667 100.828 21.24C100.647 21.6133 100.556 22.088 100.556 22.664V27H98.556V22.36C98.556 21.6027 98.3907 21.0373 98.06 20.664C97.7293 20.2907 97.2547 20.104 96.636 20.104C96.1987 20.104 95.8093 20.2 95.468 20.392C95.1373 20.584 94.876 20.8667 94.684 21.24C94.5027 21.6133 94.412 22.088 94.412 22.664V27H92.412V18.456H94.316V20.728L93.98 20.056C94.268 19.5013 94.684 19.08 95.228 18.792C95.7827 18.504 96.412 18.36 97.116 18.36C97.916 18.36 98.6093 18.5573 99.196 18.952C99.7933 19.3467 100.188 19.944 100.38 20.744L99.596 20.472C99.8733 19.832 100.332 19.32 100.972 18.936C101.612 18.552 102.353 18.36 103.196 18.36ZM114.472 27.112C113.778 27.112 113.144 26.952 112.568 26.632C112.002 26.312 111.549 25.832 111.208 25.192C110.877 24.5413 110.712 23.72 110.712 22.728C110.712 21.7253 110.872 20.904 111.192 20.264C111.522 19.624 111.97 19.1493 112.536 18.84C113.101 18.52 113.746 18.36 114.472 18.36C115.314 18.36 116.056 18.5413 116.696 18.904C117.346 19.2667 117.858 19.7733 118.232 20.424C118.616 21.0747 118.808 21.8427 118.808 22.728C118.808 23.6133 118.616 24.3867 118.232 25.048C117.858 25.6987 117.346 26.2053 116.696 26.568C116.056 26.9307 115.314 27.112 114.472 27.112ZM109.736 30.104V18.456H111.64V20.472L111.576 22.744L111.736 25.016V30.104H109.736ZM114.248 25.4C114.728 25.4 115.154 25.2933 115.528 25.08C115.912 24.8667 116.216 24.5573 116.44 24.152C116.664 23.7467 116.776 23.272 116.776 22.728C116.776 22.1733 116.664 21.6987 116.44 21.304C116.216 20.8987 115.912 20.5893 115.528 20.376C115.154 20.1627 114.728 20.056 114.248 20.056C113.768 20.056 113.336 20.1627 112.952 20.376C112.568 20.5893 112.264 20.8987 112.04 21.304C111.816 21.6987 111.704 22.1733 111.704 22.728C111.704 23.272 111.816 23.7467 112.04 24.152C112.264 24.5573 112.568 24.8667 112.952 25.08C113.336 25.2933 113.768 25.4 114.248 25.4ZM121.184 27V18.456H123.184V27H121.184ZM122.192 17.048C121.819 17.048 121.51 16.9307 121.264 16.696C121.03 16.4613 120.912 16.1787 120.912 15.848C120.912 15.5067 121.03 15.224 121.264 15C121.51 14.7653 121.819 14.648 122.192 14.648C122.566 14.648 122.87 14.76 123.104 14.984C123.35 15.1973 123.472 15.4693 123.472 15.8C123.472 16.152 123.355 16.4507 123.12 16.696C122.886 16.9307 122.576 17.048 122.192 17.048ZM130.306 27.112C129.356 27.112 128.524 26.9253 127.81 26.552C127.106 26.168 126.556 25.6453 126.162 24.984C125.778 24.3227 125.586 23.5707 125.586 22.728C125.586 21.8747 125.772 21.1227 126.146 20.472C126.53 19.8107 127.052 19.2933 127.714 18.92C128.386 18.5467 129.148 18.36 130.002 18.36C130.834 18.36 131.575 18.5413 132.226 18.904C132.876 19.2667 133.388 19.7787 133.762 20.44C134.135 21.1013 134.322 21.88 134.322 22.776C134.322 22.8613 134.316 22.9573 134.306 23.064C134.306 23.1707 134.3 23.272 134.29 23.368H127.17V22.04H133.234L132.45 22.456C132.46 21.9653 132.359 21.5333 132.146 21.16C131.932 20.7867 131.639 20.4933 131.266 20.28C130.903 20.0667 130.482 19.96 130.002 19.96C129.511 19.96 129.079 20.0667 128.706 20.28C128.343 20.4933 128.055 20.792 127.842 21.176C127.639 21.5493 127.538 21.992 127.538 22.504V22.824C127.538 23.336 127.655 23.7893 127.89 24.184C128.124 24.5787 128.455 24.8827 128.882 25.096C129.308 25.3093 129.799 25.416 130.354 25.416C130.834 25.416 131.266 25.3413 131.65 25.192C132.034 25.0427 132.375 24.808 132.674 24.488L133.746 25.72C133.362 26.168 132.876 26.5147 132.29 26.76C131.714 26.9947 131.052 27.112 130.306 27.112ZM135.941 27V25.736L141.205 19.368L141.573 20.056H136.037V18.456H143.173V19.72L137.909 26.088L137.509 25.4H143.317V27H135.941ZM150.904 27V25.272L150.792 24.904V21.88C150.792 21.2933 150.616 20.84 150.264 20.52C149.912 20.1893 149.379 20.024 148.664 20.024C148.184 20.024 147.709 20.0987 147.24 20.248C146.781 20.3973 146.392 20.6053 146.072 20.872L145.288 19.416C145.747 19.064 146.291 18.8027 146.92 18.632C147.56 18.4507 148.221 18.36 148.904 18.36C150.141 18.36 151.096 18.6587 151.768 19.256C152.451 19.8427 152.792 20.7547 152.792 21.992V27H150.904ZM148.216 27.112C147.576 27.112 147.016 27.0053 146.536 26.792C146.056 26.568 145.683 26.264 145.416 25.88C145.16 25.4853 145.032 25.0427 145.032 24.552C145.032 24.072 145.144 23.64 145.368 23.256C145.603 22.872 145.981 22.568 146.504 22.344C147.027 22.12 147.72 22.008 148.584 22.008H151.064V23.336H148.728C148.045 23.336 147.587 23.448 147.352 23.672C147.117 23.8853 147 24.152 147 24.472C147 24.8347 147.144 25.1227 147.432 25.336C147.72 25.5493 148.12 25.656 148.632 25.656C149.123 25.656 149.56 25.544 149.944 25.32C150.339 25.096 150.621 24.7653 150.792 24.328L151.128 25.528C150.936 26.0293 150.589 26.4187 150.088 26.696C149.597 26.9733 148.973 27.112 148.216 27.112ZM166.005 27V25.272L165.893 24.904V21.88C165.893 21.2933 165.717 20.84 165.365 20.52C165.013 20.1893 164.479 20.024 163.765 20.024C163.285 20.024 162.81 20.0987 162.341 20.248C161.882 20.3973 161.493 20.6053 161.173 20.872L160.389 19.416C160.847 19.064 161.391 18.8027 162.021 18.632C162.661 18.4507 163.322 18.36 164.005 18.36C165.242 18.36 166.197 18.6587 166.869 19.256C167.551 19.8427 167.893 20.7547 167.893 21.992V27H166.005ZM163.317 27.112C162.677 27.112 162.117 27.0053 161.637 26.792C161.157 26.568 160.783 26.264 160.517 25.88C160.261 25.4853 160.133 25.0427 160.133 24.552C160.133 24.072 160.245 23.64 160.469 23.256C160.703 22.872 161.082 22.568 161.605 22.344C162.127 22.12 162.821 22.008 163.685 22.008H166.165V23.336H163.829C163.146 23.336 162.687 23.448 162.453 23.672C162.218 23.8853 162.101 24.152 162.101 24.472C162.101 24.8347 162.245 25.1227 162.533 25.336C162.821 25.5493 163.221 25.656 163.733 25.656C164.223 25.656 164.661 25.544 165.045 25.32C165.439 25.096 165.722 24.7653 165.893 24.328L166.229 25.528C166.037 26.0293 165.69 26.4187 165.189 26.696C164.698 26.9733 164.074 27.112 163.317 27.112ZM175.788 18.36C176.47 18.36 177.078 18.4933 177.612 18.76C178.156 19.0267 178.582 19.4373 178.892 19.992C179.201 20.536 179.356 21.24 179.356 22.104V27H177.356V22.36C177.356 21.6027 177.174 21.0373 176.812 20.664C176.46 20.2907 175.964 20.104 175.324 20.104C174.854 20.104 174.438 20.2 174.076 20.392C173.713 20.584 173.43 20.872 173.228 21.256C173.036 21.6293 172.94 22.104 172.94 22.68V27H170.94V15.128H172.94V20.76L172.508 20.056C172.806 19.512 173.238 19.096 173.804 18.808C174.38 18.5093 175.041 18.36 175.788 18.36ZM186.228 27.112C185.354 27.112 184.575 26.9253 183.892 26.552C183.21 26.168 182.671 25.6453 182.276 24.984C181.882 24.3227 181.684 23.5707 181.684 22.728C181.684 21.8747 181.882 21.1227 182.276 20.472C182.671 19.8107 183.21 19.2933 183.892 18.92C184.575 18.5467 185.354 18.36 186.228 18.36C187.114 18.36 187.898 18.5467 188.58 18.92C189.274 19.2933 189.812 19.8053 190.196 20.456C190.591 21.1067 190.788 21.864 190.788 22.728C190.788 23.5707 190.591 24.3227 190.196 24.984C189.812 25.6453 189.274 26.168 188.58 26.552C187.898 26.9253 187.114 27.112 186.228 27.112ZM186.228 25.4C186.719 25.4 187.156 25.2933 187.54 25.08C187.924 24.8667 188.223 24.5573 188.436 24.152C188.66 23.7467 188.772 23.272 188.772 22.728C188.772 22.1733 188.66 21.6987 188.436 21.304C188.223 20.8987 187.924 20.5893 187.54 20.376C187.156 20.1627 186.724 20.056 186.244 20.056C185.754 20.056 185.316 20.1627 184.932 20.376C184.559 20.5893 184.26 20.8987 184.036 21.304C183.812 21.6987 183.7 22.1733 183.7 22.728C183.7 23.272 183.812 23.7467 184.036 24.152C184.26 24.5573 184.559 24.8667 184.932 25.08C185.316 25.2933 185.748 25.4 186.228 25.4ZM193.181 27V18.456H195.085V20.808L194.861 20.12C195.117 19.544 195.517 19.1067 196.061 18.808C196.615 18.5093 197.303 18.36 198.125 18.36V20.264C198.039 20.2427 197.959 20.232 197.885 20.232C197.81 20.2213 197.735 20.216 197.661 20.216C196.903 20.216 196.301 20.44 195.853 20.888C195.405 21.3253 195.181 21.9813 195.181 22.856V27H193.181ZM204.956 27V25.272L204.844 24.904V21.88C204.844 21.2933 204.668 20.84 204.316 20.52C203.964 20.1893 203.431 20.024 202.716 20.024C202.236 20.024 201.761 20.0987 201.292 20.248C200.833 20.3973 200.444 20.6053 200.124 20.872L199.34 19.416C199.799 19.064 200.343 18.8027 200.972 18.632C201.612 18.4507 202.273 18.36 202.956 18.36C204.193 18.36 205.148 18.6587 205.82 19.256C206.503 19.8427 206.844 20.7547 206.844 21.992V27H204.956ZM202.268 27.112C201.628 27.112 201.068 27.0053 200.588 26.792C200.108 26.568 199.735 26.264 199.468 25.88C199.212 25.4853 199.084 25.0427 199.084 24.552C199.084 24.072 199.196 23.64 199.42 23.256C199.655 22.872 200.033 22.568 200.556 22.344C201.079 22.12 201.772 22.008 202.636 22.008H205.116V23.336H202.78C202.097 23.336 201.639 23.448 201.404 23.672C201.169 23.8853 201.052 24.152 201.052 24.472C201.052 24.8347 201.196 25.1227 201.484 25.336C201.772 25.5493 202.172 25.656 202.684 25.656C203.175 25.656 203.612 25.544 203.996 25.32C204.391 25.096 204.673 24.7653 204.844 24.328L205.18 25.528C204.988 26.0293 204.641 26.4187 204.14 26.696C203.649 26.9733 203.025 27.112 202.268 27.112Z" fill="white"/>
<defs>
<linearGradient id="paint0_linear_4_143" x1="0" y1="22" x2="291" y2="22" gradientUnits="userSpaceOnUse">
<stop stop-color="#471863"/>
<stop offset="1" stop-color="#2F0D43"/>
</linearGradient>
</defs>
</svg>
