<svg width="68" height="68" viewBox="0 0 68 68" fill="none" xmlns="http://www.w3.org/2000/svg">
<g clip-path="url(#clip0_1_11)">
<path d="M12.75 34C16.662 34 19.8333 30.8287 19.8333 26.9167C19.8333 23.0047 16.662 19.8333 12.75 19.8333C8.83799 19.8333 5.66667 23.0047 5.66667 26.9167C5.66667 30.8287 8.83799 34 12.75 34Z" fill="#2F0D43"/>
<path d="M25.5 22.6667C29.412 22.6667 32.5833 19.4954 32.5833 15.5833C32.5833 11.6713 29.412 8.5 25.5 8.5C21.588 8.5 18.4167 11.6713 18.4167 15.5833C18.4167 19.4954 21.588 22.6667 25.5 22.6667Z" fill="#2F0D43"/>
<path d="M42.5 22.6667C46.412 22.6667 49.5833 19.4954 49.5833 15.5833C49.5833 11.6713 46.412 8.5 42.5 8.5C38.588 8.5 35.4167 11.6713 35.4167 15.5833C35.4167 19.4954 38.588 22.6667 42.5 22.6667Z" fill="#2F0D43"/>
<path d="M55.25 34C59.162 34 62.3333 30.8287 62.3333 26.9167C62.3333 23.0047 59.162 19.8333 55.25 19.8333C51.338 19.8333 48.1667 23.0047 48.1667 26.9167C48.1667 30.8287 51.338 34 55.25 34Z" fill="#2F0D43"/>
<path d="M49.13 42.1033C46.665 39.2133 44.5967 36.7483 42.1033 33.8583C40.8 32.3283 39.1283 30.7983 37.145 30.1183C36.8333 30.005 36.5217 29.92 36.21 29.8633C35.5017 29.75 34.7367 29.75 34 29.75C33.2633 29.75 32.4983 29.75 31.7617 29.8917C31.45 29.9483 31.1383 30.0333 30.8267 30.1467C28.8433 30.8267 27.2 32.3567 25.8683 33.8867C23.4033 36.7767 21.335 39.2417 18.8417 42.1317C15.13 45.8433 10.5683 49.9517 11.4183 55.7033C12.24 58.5933 14.3083 61.455 18.02 62.2767C20.0883 62.7017 26.69 61.03 33.7167 61.03H34.2267C41.2533 61.03 47.855 62.6733 49.9233 62.2767C53.635 61.455 55.7033 58.565 56.525 55.7033C57.4033 49.9233 52.8417 45.815 49.13 42.1033Z" fill="#2F0D43"/>
</g>
<defs>
<clipPath id="clip0_1_11">
<rect width="68" height="68" fill="white"/>
</clipPath>
</defs>
</svg>
