<svg width="59" height="20" viewBox="0 0 59 20" fill="none" xmlns="http://www.w3.org/2000/svg">
<path d="M14.68 0.159999V14H12.86V3.68L8.26 14H6.98L2.36 3.66V14H0.54V0.159999H2.5L7.62 11.6L12.74 0.159999H14.68ZM27.2066 3.04L20.6066 19.16H18.7266L20.8866 13.88L16.4666 3.04H18.4866L21.9266 11.92L25.3266 3.04H27.2066ZM38.3561 4.14C38.3561 5.3 37.9561 6.26667 37.1561 7.04C36.3694 7.8 35.1628 8.18 33.5361 8.18H30.8561V14H29.0361V0.0599995H33.5361C35.1094 0.0599995 36.3028 0.439999 37.1161 1.2C37.9428 1.96 38.3561 2.94 38.3561 4.14ZM33.5361 6.68C34.5494 6.68 35.2961 6.46 35.7761 6.02C36.2561 5.58 36.4961 4.95333 36.4961 4.14C36.4961 2.42 35.5094 1.56 33.5361 1.56H30.8561V6.68H33.5361ZM50.6181 8.1C50.6181 8.44667 50.5981 8.81333 50.5581 9.2H41.7981C41.8648 10.28 42.2315 11.1267 42.8981 11.74C43.5781 12.34 44.3981 12.64 45.3581 12.64C46.1448 12.64 46.7981 12.46 47.3181 12.1C47.8515 11.7267 48.2248 11.2333 48.4381 10.62H50.3981C50.1048 11.6733 49.5181 12.5333 48.6381 13.2C47.7581 13.8533 46.6648 14.18 45.3581 14.18C44.3181 14.18 43.3848 13.9467 42.5581 13.48C41.7448 13.0133 41.1048 12.3533 40.6381 11.5C40.1715 10.6333 39.9381 9.63333 39.9381 8.5C39.9381 7.36667 40.1648 6.37333 40.6181 5.52C41.0715 4.66667 41.7048 4.01333 42.5181 3.56C43.3448 3.09333 44.2915 2.86 45.3581 2.86C46.3981 2.86 47.3181 3.08667 48.1181 3.54C48.9181 3.99333 49.5315 4.62 49.9581 5.42C50.3981 6.20667 50.6181 7.1 50.6181 8.1ZM48.7381 7.72C48.7381 7.02667 48.5848 6.43333 48.2781 5.94C47.9715 5.43333 47.5515 5.05333 47.0181 4.8C46.4981 4.53333 45.9181 4.4 45.2781 4.4C44.3581 4.4 43.5715 4.69333 42.9181 5.28C42.2781 5.86667 41.9115 6.68 41.8181 7.72H48.7381ZM55.2405 4.54V11C55.2405 11.5333 55.3538 11.9133 55.5805 12.14C55.8071 12.3533 56.2005 12.46 56.7605 12.46H58.1005V14H56.4605C55.4471 14 54.6871 13.7667 54.1805 13.3C53.6738 12.8333 53.4205 12.0667 53.4205 11V4.54H52.0005V3.04H53.4205V0.279999H55.2405V3.04H58.1005V4.54H55.2405Z" fill="#2F0D43"/>
</svg>
