<svg width="300" height="31" viewBox="0 0 300 31" fill="none" xmlns="http://www.w3.org/2000/svg">
<path d="M15.0048 9.504C15.0048 10.5493 14.7528 11.5293 14.2488 12.444C13.7635 13.3587 12.9888 14.096 11.9248 14.656C10.8795 15.216 9.55412 15.496 7.94879 15.496H4.67279V23H0.752786V3.456H7.94879C9.46079 3.456 10.7488 3.71733 11.8128 4.24C12.8768 4.76267 13.6701 5.48133 14.1928 6.396C14.7341 7.31067 15.0048 8.34667 15.0048 9.504ZM7.78079 12.332C8.86345 12.332 9.66612 12.0893 10.1888 11.604C10.7115 11.1 10.9728 10.4 10.9728 9.504C10.9728 7.6 9.90879 6.648 7.78079 6.648H4.67279V12.332H7.78079ZM17.6199 15.188C17.6199 13.62 17.9279 12.2293 18.5439 11.016C19.1786 9.80267 20.0279 8.86933 21.0919 8.216C22.1746 7.56267 23.3786 7.236 24.7039 7.236C25.8613 7.236 26.8693 7.46933 27.7279 7.936C28.6053 8.40267 29.3053 8.99067 29.8279 9.7V7.488H33.7759V23H29.8279V20.732C29.3239 21.46 28.6239 22.0667 27.7279 22.552C26.8506 23.0187 25.8333 23.252 24.6759 23.252C23.3693 23.252 22.1746 22.916 21.0919 22.244C20.0279 21.572 19.1786 20.6293 18.5439 19.416C17.9279 18.184 17.6199 16.7747 17.6199 15.188ZM29.8279 15.244C29.8279 14.292 29.6413 13.48 29.2679 12.808C28.8946 12.1173 28.3906 11.5947 27.7559 11.24C27.1213 10.8667 26.4399 10.68 25.7119 10.68C24.9839 10.68 24.3119 10.8573 23.6959 11.212C23.0799 11.5667 22.5759 12.0893 22.1839 12.78C21.8106 13.452 21.6239 14.2547 21.6239 15.188C21.6239 16.1213 21.8106 16.9427 22.1839 17.652C22.5759 18.3427 23.0799 18.8747 23.6959 19.248C24.3306 19.6213 25.0026 19.808 25.7119 19.808C26.4399 19.808 27.1213 19.6307 27.7559 19.276C28.3906 18.9027 28.8946 18.38 29.2679 17.708C29.6413 17.0173 29.8279 16.196 29.8279 15.244ZM42.3645 9.896C42.8685 9.07467 43.5218 8.43067 44.3245 7.964C45.1458 7.49733 46.0792 7.264 47.1245 7.264V11.38H46.0885C44.8565 11.38 43.9232 11.6693 43.2885 12.248C42.6725 12.8267 42.3645 13.8347 42.3645 15.272V23H38.4445V7.488H42.3645V9.896ZM49.5968 15.188C49.5968 13.62 49.9048 12.2293 50.5208 11.016C51.1555 9.80267 52.0048 8.86933 53.0688 8.216C54.1515 7.56267 55.3555 7.236 56.6808 7.236C57.8382 7.236 58.8462 7.46933 59.7048 7.936C60.5822 8.40267 61.2822 8.99067 61.8048 9.7V7.488H65.7528V23H61.8048V20.732C61.3008 21.46 60.6008 22.0667 59.7048 22.552C58.8275 23.0187 57.8102 23.252 56.6528 23.252C55.3462 23.252 54.1515 22.916 53.0688 22.244C52.0048 21.572 51.1555 20.6293 50.5208 19.416C49.9048 18.184 49.5968 16.7747 49.5968 15.188ZM61.8048 15.244C61.8048 14.292 61.6182 13.48 61.2448 12.808C60.8715 12.1173 60.3675 11.5947 59.7328 11.24C59.0982 10.8667 58.4168 10.68 57.6888 10.68C56.9608 10.68 56.2888 10.8573 55.6728 11.212C55.0568 11.5667 54.5528 12.0893 54.1608 12.78C53.7875 13.452 53.6008 14.2547 53.6008 15.188C53.6008 16.1213 53.7875 16.9427 54.1608 17.652C54.5528 18.3427 55.0568 18.8747 55.6728 19.248C56.3075 19.6213 56.9795 19.808 57.6888 19.808C58.4168 19.808 59.0982 19.6307 59.7328 19.276C60.3675 18.9027 60.8715 18.38 61.2448 17.708C61.6182 17.0173 61.8048 16.196 61.8048 15.244ZM82.4973 10.708V18.212C82.4973 18.7347 82.6186 19.1173 82.8613 19.36C83.1226 19.584 83.5519 19.696 84.1493 19.696H85.9693V23H83.5053C80.2013 23 78.5493 21.3947 78.5493 18.184V10.708H76.7013V7.488H78.5493V3.652H82.4973V7.488H85.9693V10.708H82.4973ZM93.7167 7.488V23H89.7967V7.488H93.7167ZM94.8087 3.456L88.3687 6.396V3.596L94.8087 0.263999V3.456ZM120.942 7.488L111.338 30.336H107.166L110.526 22.608L104.31 7.488H108.706L112.71 18.324L116.77 7.488H120.942ZM135.971 10.708V18.212C135.971 18.7347 136.092 19.1173 136.335 19.36C136.596 19.584 137.025 19.696 137.623 19.696H139.443V23H136.979C133.675 23 132.023 21.3947 132.023 18.184V10.708H130.175V7.488H132.023V3.652H135.971V7.488H139.443V10.708H135.971ZM157.746 7.488V23H153.798V21.04C153.294 21.712 152.632 22.244 151.81 22.636C151.007 23.0093 150.13 23.196 149.178 23.196C147.965 23.196 146.891 22.944 145.958 22.44C145.025 21.9173 144.287 21.1613 143.746 20.172C143.223 19.164 142.962 17.9693 142.962 16.588V7.488H146.882V16.028C146.882 17.26 147.19 18.212 147.806 18.884C148.422 19.5373 149.262 19.864 150.326 19.864C151.409 19.864 152.258 19.5373 152.874 18.884C153.49 18.212 153.798 17.26 153.798 16.028V7.488H157.746ZM189.23 7.264C191.134 7.264 192.664 7.852 193.822 9.028C194.998 10.1853 195.586 11.8093 195.586 13.9V23H191.666V14.432C191.666 13.2187 191.358 12.2947 190.742 11.66C190.126 11.0067 189.286 10.68 188.222 10.68C187.158 10.68 186.308 11.0067 185.674 11.66C185.058 12.2947 184.75 13.2187 184.75 14.432V23H180.83V14.432C180.83 13.2187 180.522 12.2947 179.906 11.66C179.29 11.0067 178.45 10.68 177.386 10.68C176.303 10.68 175.444 11.0067 174.81 11.66C174.194 12.2947 173.886 13.2187 173.886 14.432V23H169.966V7.488H173.886V9.364C174.39 8.71067 175.034 8.19733 175.818 7.824C176.62 7.45067 177.498 7.264 178.45 7.264C179.663 7.264 180.746 7.52533 181.698 8.048C182.65 8.552 183.387 9.28 183.91 10.232C184.414 9.336 185.142 8.61733 186.094 8.076C187.064 7.53467 188.11 7.264 189.23 7.264ZM199.138 15.188C199.138 13.62 199.446 12.2293 200.062 11.016C200.696 9.80267 201.546 8.86933 202.61 8.216C203.692 7.56267 204.896 7.236 206.222 7.236C207.379 7.236 208.387 7.46933 209.246 7.936C210.123 8.40267 210.823 8.99067 211.346 9.7V7.488H215.294V23H211.346V20.732C210.842 21.46 210.142 22.0667 209.246 22.552C208.368 23.0187 207.351 23.252 206.194 23.252C204.887 23.252 203.692 22.916 202.61 22.244C201.546 21.572 200.696 20.6293 200.062 19.416C199.446 18.184 199.138 16.7747 199.138 15.188ZM211.346 15.244C211.346 14.292 211.159 13.48 210.786 12.808C210.412 12.1173 209.908 11.5947 209.274 11.24C208.639 10.8667 207.958 10.68 207.23 10.68C206.502 10.68 205.83 10.8573 205.214 11.212C204.598 11.5667 204.094 12.0893 203.702 12.78C203.328 13.452 203.142 14.2547 203.142 15.188C203.142 16.1213 203.328 16.9427 203.702 17.652C204.094 18.3427 204.598 18.8747 205.214 19.248C205.848 19.6213 206.52 19.808 207.23 19.808C207.958 19.808 208.639 19.6307 209.274 19.276C209.908 18.9027 210.412 18.38 210.786 17.708C211.159 17.0173 211.346 16.196 211.346 15.244ZM225.898 23.252C224.629 23.252 223.49 23.028 222.482 22.58C221.474 22.1133 220.672 21.488 220.074 20.704C219.496 19.92 219.178 19.052 219.122 18.1H223.07C223.145 18.6973 223.434 19.192 223.938 19.584C224.461 19.976 225.105 20.172 225.87 20.172C226.617 20.172 227.196 20.0227 227.606 19.724C228.036 19.4253 228.25 19.0427 228.25 18.576C228.25 18.072 227.989 17.6987 227.466 17.456C226.962 17.1947 226.15 16.9147 225.03 16.616C223.873 16.336 222.921 16.0467 222.174 15.748C221.446 15.4493 220.812 14.992 220.27 14.376C219.748 13.76 219.486 12.9293 219.486 11.884C219.486 11.0253 219.729 10.2413 220.214 9.532C220.718 8.82267 221.428 8.26267 222.342 7.852C223.276 7.44133 224.368 7.236 225.618 7.236C227.466 7.236 228.941 7.70267 230.042 8.636C231.144 9.55067 231.75 10.792 231.862 12.36H228.11C228.054 11.744 227.793 11.2587 227.326 10.904C226.878 10.5307 226.272 10.344 225.506 10.344C224.797 10.344 224.246 10.4747 223.854 10.736C223.481 10.9973 223.294 11.3613 223.294 11.828C223.294 12.3507 223.556 12.752 224.078 13.032C224.601 13.2933 225.413 13.564 226.514 13.844C227.634 14.124 228.558 14.4133 229.286 14.712C230.014 15.0107 230.64 15.4773 231.162 16.112C231.704 16.728 231.984 17.5493 232.002 18.576C232.002 19.472 231.75 20.2747 231.246 20.984C230.761 21.6933 230.052 22.2533 229.118 22.664C228.204 23.056 227.13 23.252 225.898 23.252ZM235.052 15.244C235.052 13.6387 235.379 12.2387 236.032 11.044C236.685 9.83067 237.591 8.89733 238.748 8.244C239.905 7.572 241.231 7.236 242.724 7.236C244.647 7.236 246.233 7.72133 247.484 8.692C248.753 9.644 249.603 10.988 250.032 12.724H245.804C245.58 12.052 245.197 11.5293 244.656 11.156C244.133 10.764 243.48 10.568 242.696 10.568C241.576 10.568 240.689 10.9787 240.036 11.8C239.383 12.6027 239.056 13.7507 239.056 15.244C239.056 16.7187 239.383 17.8667 240.036 18.688C240.689 19.4907 241.576 19.892 242.696 19.892C244.283 19.892 245.319 19.1827 245.804 17.764H250.032C249.603 19.444 248.753 20.7787 247.484 21.768C246.215 22.7573 244.628 23.252 242.724 23.252C241.231 23.252 239.905 22.9253 238.748 22.272C237.591 21.6 236.685 20.6667 236.032 19.472C235.379 18.2587 235.052 16.8493 235.052 15.244ZM260.632 23.252C259.138 23.252 257.794 22.9253 256.6 22.272C255.405 21.6 254.462 20.6573 253.772 19.444C253.1 18.2307 252.764 16.8307 252.764 15.244C252.764 13.6573 253.109 12.2573 253.8 11.044C254.509 9.83067 255.47 8.89733 256.684 8.244C257.897 7.572 259.25 7.236 260.744 7.236C262.237 7.236 263.59 7.572 264.804 8.244C266.017 8.89733 266.969 9.83067 267.66 11.044C268.369 12.2573 268.724 13.6573 268.724 15.244C268.724 16.8307 268.36 18.2307 267.632 19.444C266.922 20.6573 265.952 21.6 264.72 22.272C263.506 22.9253 262.144 23.252 260.632 23.252ZM260.632 19.836C261.341 19.836 262.004 19.668 262.62 19.332C263.254 18.9773 263.758 18.4547 264.132 17.764C264.505 17.0733 264.692 16.2333 264.692 15.244C264.692 13.7693 264.3 12.64 263.516 11.856C262.75 11.0533 261.808 10.652 260.688 10.652C259.568 10.652 258.625 11.0533 257.86 11.856C257.113 12.64 256.74 13.7693 256.74 15.244C256.74 16.7187 257.104 17.8573 257.832 18.66C258.578 19.444 259.512 19.836 260.632 19.836ZM277.003 10.708V18.212C277.003 18.7347 277.125 19.1173 277.367 19.36C277.629 19.584 278.058 19.696 278.655 19.696H280.475V23H278.011C274.707 23 273.055 21.3947 273.055 18.184V10.708H271.207V7.488H273.055V3.652H277.003V7.488H280.475V10.708H277.003ZM283.127 15.188C283.127 13.62 283.435 12.2293 284.051 11.016C284.685 9.80267 285.535 8.86933 286.599 8.216C287.681 7.56267 288.885 7.236 290.211 7.236C291.368 7.236 292.376 7.46933 293.235 7.936C294.112 8.40267 294.812 8.99067 295.335 9.7V7.488H299.283V23H295.335V20.732C294.831 21.46 294.131 22.0667 293.235 22.552C292.357 23.0187 291.34 23.252 290.183 23.252C288.876 23.252 287.681 22.916 286.599 22.244C285.535 21.572 284.685 20.6293 284.051 19.416C283.435 18.184 283.127 16.7747 283.127 15.188ZM295.335 15.244C295.335 14.292 295.148 13.48 294.775 12.808C294.401 12.1173 293.897 11.5947 293.263 11.24C292.628 10.8667 291.947 10.68 291.219 10.68C290.491 10.68 289.819 10.8573 289.203 11.212C288.587 11.5667 288.083 12.0893 287.691 12.78C287.317 13.452 287.131 14.2547 287.131 15.188C287.131 16.1213 287.317 16.9427 287.691 17.652C288.083 18.3427 288.587 18.8747 289.203 19.248C289.837 19.6213 290.509 19.808 291.219 19.808C291.947 19.808 292.628 19.6307 293.263 19.276C293.897 18.9027 294.401 18.38 294.775 17.708C295.148 17.0173 295.335 16.196 295.335 15.244Z" fill="#2F0D43"/>
</svg>
