<svg width="284" height="46" viewBox="0 0 284 46" fill="none" xmlns="http://www.w3.org/2000/svg">
<path d="M1.61772 5.708H6.92372V6.338H1.61772V5.708ZM1.70172 10.356H7.74972V11H0.987724V1.2H7.53972V1.844H1.70172V10.356ZM14.119 3.636C14.7163 3.636 15.2343 3.75267 15.673 3.986C16.121 4.21 16.4663 4.55533 16.709 5.022C16.961 5.47933 17.087 6.04867 17.087 6.73V11H16.387V6.786C16.387 5.96467 16.177 5.33933 15.757 4.91C15.3463 4.48067 14.7676 4.266 14.021 4.266C13.4516 4.266 12.957 4.38267 12.537 4.616C12.117 4.84933 11.795 5.176 11.571 5.596C11.3563 6.016 11.249 6.52 11.249 7.108V11H10.549V3.692H11.221V5.722L11.123 5.498C11.347 4.91933 11.7156 4.46667 12.229 4.14C12.7423 3.804 13.3723 3.636 14.119 3.636ZM23.2869 11.056C22.5775 11.056 21.9429 10.8973 21.3829 10.58C20.8322 10.2627 20.3935 9.824 20.0669 9.264C19.7495 8.704 19.5909 8.06467 19.5909 7.346C19.5909 6.618 19.7495 5.974 20.0669 5.414C20.3935 4.854 20.8322 4.42 21.3829 4.112C21.9429 3.79467 22.5775 3.636 23.2869 3.636C23.8749 3.636 24.4069 3.748 24.8829 3.972C25.3682 4.196 25.7602 4.532 26.0589 4.98L25.5409 5.358C25.2795 4.98467 24.9529 4.70933 24.5609 4.532C24.1689 4.35467 23.7442 4.266 23.2869 4.266C22.7175 4.266 22.2042 4.39667 21.7469 4.658C21.2989 4.91 20.9442 5.26933 20.6829 5.736C20.4309 6.19333 20.3049 6.73 20.3049 7.346C20.3049 7.962 20.4309 8.50333 20.6829 8.97C20.9442 9.42733 21.2989 9.78667 21.7469 10.048C22.2042 10.3 22.7175 10.426 23.2869 10.426C23.7442 10.426 24.1689 10.3373 24.5609 10.16C24.9529 9.98267 25.2795 9.70733 25.5409 9.334L26.0589 9.712C25.7602 10.16 25.3682 10.496 24.8829 10.72C24.4069 10.944 23.8749 11.056 23.2869 11.056ZM31.5425 11.056C30.9172 11.056 30.3758 10.944 29.9185 10.72C29.4612 10.4867 29.1065 10.1413 28.8545 9.684C28.6118 9.21733 28.4905 8.64333 28.4905 7.962V3.692H29.1905V7.906C29.1905 8.72733 29.4005 9.35267 29.8205 9.782C30.2405 10.2113 30.8332 10.426 31.5985 10.426C32.1492 10.426 32.6252 10.3093 33.0265 10.076C33.4278 9.84267 33.7358 9.516 33.9505 9.096C34.1652 8.66667 34.2725 8.16267 34.2725 7.584V3.692H34.9725V11H34.3005V8.97L34.3985 9.208C34.1838 9.77733 33.8245 10.23 33.3205 10.566C32.8258 10.8927 32.2332 11.056 31.5425 11.056ZM41.3277 11.056C40.5904 11.056 39.9371 10.8973 39.3677 10.58C38.8077 10.2627 38.3644 9.824 38.0377 9.264C37.7204 8.704 37.5617 8.06467 37.5617 7.346C37.5617 6.618 37.7111 5.97867 38.0097 5.428C38.3177 4.868 38.7377 4.42933 39.2697 4.112C39.8017 3.79467 40.3991 3.636 41.0617 3.636C41.7244 3.636 42.3171 3.79 42.8397 4.098C43.3717 4.406 43.7871 4.84 44.0857 5.4C44.3937 5.95067 44.5477 6.59 44.5477 7.318C44.5477 7.346 44.5431 7.37867 44.5337 7.416C44.5337 7.444 44.5337 7.47667 44.5337 7.514H38.0797V6.968H44.1557L43.8757 7.234C43.8851 6.66467 43.7637 6.156 43.5117 5.708C43.2691 5.25067 42.9377 4.896 42.5177 4.644C42.0977 4.38267 41.6124 4.252 41.0617 4.252C40.5204 4.252 40.0351 4.38267 39.6057 4.644C39.1857 4.896 38.8544 5.25067 38.6117 5.708C38.3691 6.156 38.2477 6.66933 38.2477 7.248V7.374C38.2477 7.97133 38.3784 8.50333 38.6397 8.97C38.9104 9.42733 39.2791 9.78667 39.7457 10.048C40.2124 10.3 40.7444 10.426 41.3417 10.426C41.8084 10.426 42.2424 10.342 42.6437 10.174C43.0544 10.006 43.3997 9.74933 43.6797 9.404L44.0857 9.866C43.7684 10.258 43.3671 10.5567 42.8817 10.762C42.4057 10.958 41.8877 11.056 41.3277 11.056ZM50.7033 3.636C51.3006 3.636 51.8186 3.75267 52.2573 3.986C52.7053 4.21 53.0506 4.55533 53.2933 5.022C53.5453 5.47933 53.6713 6.04867 53.6713 6.73V11H52.9713V6.786C52.9713 5.96467 52.7613 5.33933 52.3413 4.91C51.9306 4.48067 51.3519 4.266 50.6053 4.266C50.0359 4.266 49.5413 4.38267 49.1213 4.616C48.7013 4.84933 48.3793 5.176 48.1553 5.596C47.9406 6.016 47.8333 6.52 47.8333 7.108V11H47.1333V3.692H47.8053V5.722L47.7073 5.498C47.9313 4.91933 48.2999 4.46667 48.8133 4.14C49.3266 3.804 49.9566 3.636 50.7033 3.636ZM59.1012 11.056C58.4572 11.056 57.9625 10.8787 57.6172 10.524C57.2812 10.1693 57.1132 9.684 57.1132 9.068V2.096H57.8132V8.998C57.8132 9.46467 57.9298 9.824 58.1632 10.076C58.3965 10.328 58.7325 10.454 59.1712 10.454C59.6285 10.454 60.0065 10.3187 60.3052 10.048L60.5992 10.538C60.4125 10.7153 60.1838 10.846 59.9132 10.93C59.6518 11.014 59.3812 11.056 59.1012 11.056ZM55.7692 4.294V3.692H60.1372V4.294H55.7692ZM62.9713 11V3.692H63.6433V5.694L63.5733 5.47C63.7786 4.882 64.124 4.42933 64.6093 4.112C65.0946 3.79467 65.7013 3.636 66.4293 3.636V4.322C66.4013 4.322 66.3733 4.322 66.3453 4.322C66.3173 4.31267 66.2893 4.308 66.2613 4.308C65.4493 4.308 64.8146 4.56467 64.3573 5.078C63.9 5.582 63.6713 6.28667 63.6713 7.192V11H62.9713ZM72.8371 11V9.334L72.8091 9.082V6.338C72.8091 5.65667 72.6225 5.13867 72.2491 4.784C71.8851 4.42933 71.3485 4.252 70.6391 4.252C70.1351 4.252 69.6638 4.34067 69.2251 4.518C68.7958 4.686 68.4271 4.90533 68.1191 5.176L67.7691 4.672C68.1331 4.34533 68.5718 4.09333 69.0851 3.916C69.5985 3.72933 70.1351 3.636 70.6951 3.636C71.6005 3.636 72.2958 3.86467 72.7811 4.322C73.2665 4.77933 73.5091 5.46067 73.5091 6.366V11H72.8371ZM70.2051 11.056C69.6638 11.056 69.1925 10.972 68.7911 10.804C68.3991 10.6267 68.0958 10.3793 67.8811 10.062C67.6758 9.74467 67.5731 9.38067 67.5731 8.97C67.5731 8.59667 67.6571 8.26067 67.8251 7.962C68.0025 7.654 68.2918 7.40667 68.6931 7.22C69.0945 7.024 69.6311 6.926 70.3031 6.926H72.9911V7.472H70.3171C69.5611 7.472 69.0291 7.612 68.7211 7.892C68.4225 8.172 68.2731 8.522 68.2731 8.942C68.2731 9.40867 68.4505 9.782 68.8051 10.062C69.1598 10.342 69.6591 10.482 70.3031 10.482C70.9191 10.482 71.4371 10.342 71.8571 10.062C72.2865 9.782 72.6038 9.376 72.8091 8.844L73.0051 9.32C72.8091 9.852 72.4731 10.2767 71.9971 10.594C71.5305 10.902 70.9331 11.056 70.2051 11.056ZM80.829 11V0.611999H81.529V11H80.829ZM87.7554 11.056C87.0554 11.056 86.43 10.8973 85.8794 10.58C85.338 10.2627 84.904 9.824 84.5774 9.264C84.26 8.704 84.1014 8.06467 84.1014 7.346C84.1014 6.618 84.26 5.97867 84.5774 5.428C84.904 4.868 85.338 4.42933 85.8794 4.112C86.43 3.79467 87.0554 3.636 87.7554 3.636C88.4554 3.636 89.0807 3.79467 89.6314 4.112C90.182 4.42933 90.616 4.868 90.9334 5.428C91.2507 5.97867 91.4094 6.618 91.4094 7.346C91.4094 8.06467 91.2507 8.704 90.9334 9.264C90.616 9.824 90.182 10.2627 89.6314 10.58C89.0807 10.8973 88.4554 11.056 87.7554 11.056ZM87.7554 10.426C88.3154 10.426 88.8194 10.3 89.2674 10.048C89.7154 9.78667 90.0654 9.42267 90.3174 8.956C90.5694 8.48933 90.6954 7.95267 90.6954 7.346C90.6954 6.73 90.5694 6.19333 90.3174 5.736C90.0654 5.26933 89.7154 4.91 89.2674 4.658C88.8194 4.39667 88.3154 4.266 87.7554 4.266C87.1954 4.266 86.6914 4.39667 86.2434 4.658C85.8047 4.91 85.4547 5.26933 85.1934 5.736C84.9414 6.19333 84.8154 6.73 84.8154 7.346C84.8154 7.95267 84.9414 8.48933 85.1934 8.956C85.4547 9.42267 85.8047 9.78667 86.2434 10.048C86.6914 10.3 87.1954 10.426 87.7554 10.426ZM95.849 11.056C95.2423 11.056 94.673 10.9673 94.141 10.79C93.6183 10.6127 93.2123 10.3887 92.923 10.118L93.245 9.558C93.525 9.80067 93.8983 10.0107 94.365 10.188C94.8317 10.356 95.3357 10.44 95.877 10.44C96.6423 10.44 97.193 10.314 97.529 10.062C97.865 9.81 98.033 9.47867 98.033 9.068C98.033 8.76933 97.9443 8.536 97.767 8.368C97.599 8.19067 97.3703 8.05533 97.081 7.962C96.7917 7.86867 96.4743 7.794 96.129 7.738C95.7837 7.67267 95.4383 7.60267 95.093 7.528C94.7477 7.45333 94.4303 7.346 94.141 7.206C93.8517 7.066 93.6183 6.87467 93.441 6.632C93.273 6.38 93.189 6.04867 93.189 5.638C93.189 5.26467 93.2917 4.92867 93.497 4.63C93.7023 4.33133 94.0103 4.09333 94.421 3.916C94.8317 3.72933 95.345 3.636 95.961 3.636C96.4183 3.636 96.8757 3.70133 97.333 3.832C97.7997 3.96267 98.1777 4.13533 98.467 4.35L98.145 4.91C97.837 4.67667 97.4917 4.50867 97.109 4.406C96.7263 4.30333 96.339 4.252 95.947 4.252C95.2377 4.252 94.715 4.38267 94.379 4.644C94.0523 4.90533 93.889 5.232 93.889 5.624C93.889 5.932 93.973 6.17933 94.141 6.366C94.3183 6.54333 94.5517 6.68333 94.841 6.786C95.1303 6.87933 95.4477 6.95867 95.793 7.024C96.1383 7.08 96.4837 7.14533 96.829 7.22C97.1743 7.29467 97.4917 7.402 97.781 7.542C98.0703 7.67267 98.299 7.85933 98.467 8.102C98.6443 8.33533 98.733 8.65267 98.733 9.054C98.733 9.45533 98.621 9.80533 98.397 10.104C98.1823 10.4027 97.8603 10.636 97.431 10.804C97.0017 10.972 96.4743 11.056 95.849 11.056ZM114.222 3.636C114.81 3.636 115.319 3.75267 115.748 3.986C116.187 4.21 116.528 4.55533 116.77 5.022C117.013 5.47933 117.134 6.04867 117.134 6.73V11H116.434V6.786C116.434 5.96467 116.234 5.33933 115.832 4.91C115.431 4.48067 114.871 4.266 114.152 4.266C113.602 4.266 113.126 4.38267 112.724 4.616C112.323 4.84933 112.015 5.176 111.8 5.596C111.586 6.016 111.478 6.52 111.478 7.108V11H110.778V6.786C110.778 5.96467 110.578 5.33933 110.176 4.91C109.775 4.48067 109.215 4.266 108.496 4.266C107.946 4.266 107.47 4.38267 107.068 4.616C106.667 4.84933 106.359 5.176 106.144 5.596C105.93 6.016 105.822 6.52 105.822 7.108V11H105.122V3.692H105.794V5.708L105.696 5.484C105.911 4.91467 106.27 4.46667 106.774 4.14C107.278 3.804 107.885 3.636 108.594 3.636C109.322 3.636 109.934 3.82267 110.428 4.196C110.932 4.56 111.25 5.106 111.38 5.834L111.142 5.736C111.338 5.11067 111.707 4.60667 112.248 4.224C112.79 3.832 113.448 3.636 114.222 3.636ZM123.413 11.056C122.675 11.056 122.022 10.8973 121.453 10.58C120.893 10.2627 120.449 9.824 120.123 9.264C119.805 8.704 119.647 8.06467 119.647 7.346C119.647 6.618 119.796 5.97867 120.095 5.428C120.403 4.868 120.823 4.42933 121.355 4.112C121.887 3.79467 122.484 3.636 123.147 3.636C123.809 3.636 124.402 3.79 124.925 4.098C125.457 4.406 125.872 4.84 126.171 5.4C126.479 5.95067 126.633 6.59 126.633 7.318C126.633 7.346 126.628 7.37867 126.619 7.416C126.619 7.444 126.619 7.47667 126.619 7.514H120.165V6.968H126.241L125.961 7.234C125.97 6.66467 125.849 6.156 125.597 5.708C125.354 5.25067 125.023 4.896 124.603 4.644C124.183 4.38267 123.697 4.252 123.147 4.252C122.605 4.252 122.12 4.38267 121.691 4.644C121.271 4.896 120.939 5.25067 120.697 5.708C120.454 6.156 120.333 6.66933 120.333 7.248V7.374C120.333 7.97133 120.463 8.50333 120.725 8.97C120.995 9.42733 121.364 9.78667 121.831 10.048C122.297 10.3 122.829 10.426 123.427 10.426C123.893 10.426 124.327 10.342 124.729 10.174C125.139 10.006 125.485 9.74933 125.765 9.404L126.171 9.866C125.853 10.258 125.452 10.5567 124.967 10.762C124.491 10.958 123.973 11.056 123.413 11.056ZM128.014 13.772C127.725 13.772 127.445 13.73 127.174 13.646C126.903 13.5713 126.679 13.45 126.502 13.282L126.782 12.764C127.09 13.0347 127.487 13.17 127.972 13.17C128.392 13.17 128.714 13.044 128.938 12.792C129.171 12.54 129.288 12.176 129.288 11.7V3.692H129.988V11.728C129.988 12.344 129.815 12.8387 129.47 13.212C129.134 13.5853 128.649 13.772 128.014 13.772ZM129.638 1.914C129.479 1.914 129.344 1.858 129.232 1.746C129.12 1.634 129.064 1.50333 129.064 1.354C129.064 1.19533 129.12 1.06 129.232 0.947999C129.344 0.836 129.479 0.78 129.638 0.78C129.806 0.78 129.941 0.836 130.044 0.947999C130.156 1.05067 130.212 1.18133 130.212 1.34C130.212 1.49867 130.156 1.634 130.044 1.746C129.941 1.858 129.806 1.914 129.638 1.914ZM136.213 11.056C135.513 11.056 134.888 10.8973 134.337 10.58C133.796 10.2627 133.362 9.824 133.035 9.264C132.718 8.704 132.559 8.06467 132.559 7.346C132.559 6.618 132.718 5.97867 133.035 5.428C133.362 4.868 133.796 4.42933 134.337 4.112C134.888 3.79467 135.513 3.636 136.213 3.636C136.913 3.636 137.538 3.79467 138.089 4.112C138.64 4.42933 139.074 4.868 139.391 5.428C139.708 5.97867 139.867 6.618 139.867 7.346C139.867 8.06467 139.708 8.704 139.391 9.264C139.074 9.824 138.64 10.2627 138.089 10.58C137.538 10.8973 136.913 11.056 136.213 11.056ZM136.213 10.426C136.773 10.426 137.277 10.3 137.725 10.048C138.173 9.78667 138.523 9.42267 138.775 8.956C139.027 8.48933 139.153 7.95267 139.153 7.346C139.153 6.73 139.027 6.19333 138.775 5.736C138.523 5.26933 138.173 4.91 137.725 4.658C137.277 4.39667 136.773 4.266 136.213 4.266C135.653 4.266 135.149 4.39667 134.701 4.658C134.262 4.91 133.912 5.26933 133.651 5.736C133.399 6.19333 133.273 6.73 133.273 7.346C133.273 7.95267 133.399 8.48933 133.651 8.956C133.912 9.42267 134.262 9.78667 134.701 10.048C135.149 10.3 135.653 10.426 136.213 10.426ZM142.458 11V3.692H143.13V5.694L143.06 5.47C143.266 4.882 143.611 4.42933 144.096 4.112C144.582 3.79467 145.188 3.636 145.916 3.636V4.322C145.888 4.322 145.86 4.322 145.832 4.322C145.804 4.31267 145.776 4.308 145.748 4.308C144.936 4.308 144.302 4.56467 143.844 5.078C143.387 5.582 143.158 6.28667 143.158 7.192V11H142.458ZM151.165 11.056C150.428 11.056 149.774 10.8973 149.205 10.58C148.645 10.2627 148.202 9.824 147.875 9.264C147.558 8.704 147.399 8.06467 147.399 7.346C147.399 6.618 147.548 5.97867 147.847 5.428C148.155 4.868 148.575 4.42933 149.107 4.112C149.639 3.79467 150.236 3.636 150.899 3.636C151.562 3.636 152.154 3.79 152.677 4.098C153.209 4.406 153.624 4.84 153.923 5.4C154.231 5.95067 154.385 6.59 154.385 7.318C154.385 7.346 154.38 7.37867 154.371 7.416C154.371 7.444 154.371 7.47667 154.371 7.514H147.917V6.968H153.993L153.713 7.234C153.722 6.66467 153.601 6.156 153.349 5.708C153.106 5.25067 152.775 4.896 152.355 4.644C151.935 4.38267 151.45 4.252 150.899 4.252C150.358 4.252 149.872 4.38267 149.443 4.644C149.023 4.896 148.692 5.25067 148.449 5.708C148.206 6.156 148.085 6.66933 148.085 7.248V7.374C148.085 7.97133 148.216 8.50333 148.477 8.97C148.748 9.42733 149.116 9.78667 149.583 10.048C150.05 10.3 150.582 10.426 151.179 10.426C151.646 10.426 152.08 10.342 152.481 10.174C152.892 10.006 153.237 9.74933 153.517 9.404L153.923 9.866C153.606 10.258 153.204 10.5567 152.719 10.762C152.243 10.958 151.725 11.056 151.165 11.056ZM158.818 11.056C158.212 11.056 157.642 10.9673 157.11 10.79C156.588 10.6127 156.182 10.3887 155.892 10.118L156.214 9.558C156.494 9.80067 156.868 10.0107 157.334 10.188C157.801 10.356 158.305 10.44 158.846 10.44C159.612 10.44 160.162 10.314 160.498 10.062C160.834 9.81 161.002 9.47867 161.002 9.068C161.002 8.76933 160.914 8.536 160.736 8.368C160.568 8.19067 160.34 8.05533 160.05 7.962C159.761 7.86867 159.444 7.794 159.098 7.738C158.753 7.67267 158.408 7.60267 158.062 7.528C157.717 7.45333 157.4 7.346 157.11 7.206C156.821 7.066 156.588 6.87467 156.41 6.632C156.242 6.38 156.158 6.04867 156.158 5.638C156.158 5.26467 156.261 4.92867 156.466 4.63C156.672 4.33133 156.98 4.09333 157.39 3.916C157.801 3.72933 158.314 3.636 158.93 3.636C159.388 3.636 159.845 3.70133 160.302 3.832C160.769 3.96267 161.147 4.13533 161.436 4.35L161.114 4.91C160.806 4.67667 160.461 4.50867 160.078 4.406C159.696 4.30333 159.308 4.252 158.916 4.252C158.207 4.252 157.684 4.38267 157.348 4.644C157.022 4.90533 156.858 5.232 156.858 5.624C156.858 5.932 156.942 6.17933 157.11 6.366C157.288 6.54333 157.521 6.68333 157.81 6.786C158.1 6.87933 158.417 6.95867 158.762 7.024C159.108 7.08 159.453 7.14533 159.798 7.22C160.144 7.29467 160.461 7.402 160.75 7.542C161.04 7.67267 161.268 7.85933 161.436 8.102C161.614 8.33533 161.702 8.65267 161.702 9.054C161.702 9.45533 161.59 9.80533 161.366 10.104C161.152 10.4027 160.83 10.636 160.4 10.804C159.971 10.972 159.444 11.056 158.818 11.056ZM172.698 11V9.334L172.67 9.082V6.338C172.67 5.65667 172.483 5.13867 172.11 4.784C171.746 4.42933 171.209 4.252 170.5 4.252C169.996 4.252 169.524 4.34067 169.086 4.518C168.656 4.686 168.288 4.90533 167.98 5.176L167.63 4.672C167.994 4.34533 168.432 4.09333 168.946 3.916C169.459 3.72933 169.996 3.636 170.556 3.636C171.461 3.636 172.156 3.86467 172.642 4.322C173.127 4.77933 173.37 5.46067 173.37 6.366V11H172.698ZM170.066 11.056C169.524 11.056 169.053 10.972 168.652 10.804C168.26 10.6267 167.956 10.3793 167.742 10.062C167.536 9.74467 167.434 9.38067 167.434 8.97C167.434 8.59667 167.518 8.26067 167.686 7.962C167.863 7.654 168.152 7.40667 168.554 7.22C168.955 7.024 169.492 6.926 170.164 6.926H172.852V7.472H170.178C169.422 7.472 168.89 7.612 168.582 7.892C168.283 8.172 168.134 8.522 168.134 8.942C168.134 9.40867 168.311 9.782 168.666 10.062C169.02 10.342 169.52 10.482 170.164 10.482C170.78 10.482 171.298 10.342 171.718 10.062C172.147 9.782 172.464 9.376 172.67 8.844L172.866 9.32C172.67 9.852 172.334 10.2767 171.858 10.594C171.391 10.902 170.794 11.056 170.066 11.056ZM176.674 11V3.692H177.346V5.694L177.276 5.47C177.481 4.882 177.826 4.42933 178.312 4.112C178.797 3.79467 179.404 3.636 180.132 3.636V4.322C180.104 4.322 180.076 4.322 180.048 4.322C180.02 4.31267 179.992 4.308 179.964 4.308C179.152 4.308 178.517 4.56467 178.06 5.078C177.602 5.582 177.374 6.28667 177.374 7.192V11H176.674ZM184.937 11.056C184.293 11.056 183.798 10.8787 183.453 10.524C183.117 10.1693 182.949 9.684 182.949 9.068V2.096H183.649V8.998C183.649 9.46467 183.765 9.824 183.999 10.076C184.232 10.328 184.568 10.454 185.007 10.454C185.464 10.454 185.842 10.3187 186.141 10.048L186.435 10.538C186.248 10.7153 186.019 10.846 185.749 10.93C185.487 11.014 185.217 11.056 184.937 11.056ZM181.605 4.294V3.692H185.973V4.294H181.605ZM188.807 11V3.692H189.507V11H188.807ZM188.359 2.502L190.305 0.85H191.313L189.115 2.502H188.359ZM195.775 11.056C195.066 11.056 194.431 10.8973 193.871 10.58C193.32 10.2627 192.882 9.824 192.555 9.264C192.238 8.704 192.079 8.06467 192.079 7.346C192.079 6.618 192.238 5.974 192.555 5.414C192.882 4.854 193.32 4.42 193.871 4.112C194.431 3.79467 195.066 3.636 195.775 3.636C196.363 3.636 196.895 3.748 197.371 3.972C197.856 4.196 198.248 4.532 198.547 4.98L198.029 5.358C197.768 4.98467 197.441 4.70933 197.049 4.532C196.657 4.35467 196.232 4.266 195.775 4.266C195.206 4.266 194.692 4.39667 194.235 4.658C193.787 4.91 193.432 5.26933 193.171 5.736C192.919 6.19333 192.793 6.73 192.793 7.346C192.793 7.962 192.919 8.50333 193.171 8.97C193.432 9.42733 193.787 9.78667 194.235 10.048C194.692 10.3 195.206 10.426 195.775 10.426C196.232 10.426 196.657 10.3373 197.049 10.16C197.441 9.98267 197.768 9.70733 198.029 9.334L198.547 9.712C198.248 10.16 197.856 10.496 197.371 10.72C196.895 10.944 196.363 11.056 195.775 11.056ZM204.031 11.056C203.405 11.056 202.864 10.944 202.407 10.72C201.949 10.4867 201.595 10.1413 201.343 9.684C201.1 9.21733 200.979 8.64333 200.979 7.962V3.692H201.679V7.906C201.679 8.72733 201.889 9.35267 202.309 9.782C202.729 10.2113 203.321 10.426 204.087 10.426C204.637 10.426 205.113 10.3093 205.515 10.076C205.916 9.84267 206.224 9.516 206.439 9.096C206.653 8.66667 206.761 8.16267 206.761 7.584V3.692H207.461V11H206.789V8.97L206.887 9.208C206.672 9.77733 206.313 10.23 205.809 10.566C205.314 10.8927 204.721 11.056 204.031 11.056ZM210.848 11V0.611999H211.548V11H210.848ZM217.774 11.056C217.074 11.056 216.449 10.8973 215.898 10.58C215.357 10.2627 214.923 9.824 214.596 9.264C214.279 8.704 214.12 8.06467 214.12 7.346C214.12 6.618 214.279 5.97867 214.596 5.428C214.923 4.868 215.357 4.42933 215.898 4.112C216.449 3.79467 217.074 3.636 217.774 3.636C218.474 3.636 219.1 3.79467 219.65 4.112C220.201 4.42933 220.635 4.868 220.952 5.428C221.27 5.97867 221.428 6.618 221.428 7.346C221.428 8.06467 221.27 8.704 220.952 9.264C220.635 9.824 220.201 10.2627 219.65 10.58C219.1 10.8973 218.474 11.056 217.774 11.056ZM217.774 10.426C218.334 10.426 218.838 10.3 219.286 10.048C219.734 9.78667 220.084 9.42267 220.336 8.956C220.588 8.48933 220.714 7.95267 220.714 7.346C220.714 6.73 220.588 6.19333 220.336 5.736C220.084 5.26933 219.734 4.91 219.286 4.658C218.838 4.39667 218.334 4.266 217.774 4.266C217.214 4.266 216.71 4.39667 216.262 4.658C215.824 4.91 215.474 5.26933 215.212 5.736C214.96 6.19333 214.834 6.73 214.834 7.346C214.834 7.95267 214.96 8.48933 215.212 8.956C215.474 9.42267 215.824 9.78667 216.262 10.048C216.71 10.3 217.214 10.426 217.774 10.426ZM225.868 11.056C225.261 11.056 224.692 10.9673 224.16 10.79C223.637 10.6127 223.231 10.3887 222.942 10.118L223.264 9.558C223.544 9.80067 223.917 10.0107 224.384 10.188C224.851 10.356 225.355 10.44 225.896 10.44C226.661 10.44 227.212 10.314 227.548 10.062C227.884 9.81 228.052 9.47867 228.052 9.068C228.052 8.76933 227.963 8.536 227.786 8.368C227.618 8.19067 227.389 8.05533 227.1 7.962C226.811 7.86867 226.493 7.794 226.148 7.738C225.803 7.67267 225.457 7.60267 225.112 7.528C224.767 7.45333 224.449 7.346 224.16 7.206C223.871 7.066 223.637 6.87467 223.46 6.632C223.292 6.38 223.208 6.04867 223.208 5.638C223.208 5.26467 223.311 4.92867 223.516 4.63C223.721 4.33133 224.029 4.09333 224.44 3.916C224.851 3.72933 225.364 3.636 225.98 3.636C226.437 3.636 226.895 3.70133 227.352 3.832C227.819 3.96267 228.197 4.13533 228.486 4.35L228.164 4.91C227.856 4.67667 227.511 4.50867 227.128 4.406C226.745 4.30333 226.358 4.252 225.966 4.252C225.257 4.252 224.734 4.38267 224.398 4.644C224.071 4.90533 223.908 5.232 223.908 5.624C223.908 5.932 223.992 6.17933 224.16 6.366C224.337 6.54333 224.571 6.68333 224.86 6.786C225.149 6.87933 225.467 6.95867 225.812 7.024C226.157 7.08 226.503 7.14533 226.848 7.22C227.193 7.29467 227.511 7.402 227.8 7.542C228.089 7.67267 228.318 7.85933 228.486 8.102C228.663 8.33533 228.752 8.65267 228.752 9.054C228.752 9.45533 228.64 9.80533 228.416 10.104C228.201 10.4027 227.879 10.636 227.45 10.804C227.021 10.972 226.493 11.056 225.868 11.056ZM238.809 11.056C238.165 11.056 237.582 10.9067 237.059 10.608C236.546 10.3093 236.135 9.88467 235.827 9.334C235.529 8.774 235.379 8.11133 235.379 7.346C235.379 6.58067 235.529 5.92267 235.827 5.372C236.135 4.812 236.546 4.38267 237.059 4.084C237.582 3.78533 238.165 3.636 238.809 3.636C239.5 3.636 240.116 3.79467 240.657 4.112C241.208 4.42 241.637 4.854 241.945 5.414C242.263 5.974 242.421 6.618 242.421 7.346C242.421 8.074 242.263 8.718 241.945 9.278C241.637 9.838 241.208 10.2767 240.657 10.594C240.116 10.902 239.5 11.056 238.809 11.056ZM235.141 13.716V3.692H235.813V6.086L235.701 7.36L235.841 8.634V13.716H235.141ZM238.767 10.426C239.327 10.426 239.831 10.3 240.279 10.048C240.727 9.78667 241.077 9.42267 241.329 8.956C241.591 8.48933 241.721 7.95267 241.721 7.346C241.721 6.73 241.591 6.19333 241.329 5.736C241.077 5.26933 240.727 4.91 240.279 4.658C239.831 4.39667 239.327 4.266 238.767 4.266C238.207 4.266 237.703 4.39667 237.255 4.658C236.817 4.91 236.467 5.26933 236.205 5.736C235.953 6.19333 235.827 6.73 235.827 7.346C235.827 7.95267 235.953 8.48933 236.205 8.956C236.467 9.42267 236.817 9.78667 237.255 10.048C237.703 10.3 238.207 10.426 238.767 10.426ZM249.587 11V9.334L249.559 9.082V6.338C249.559 5.65667 249.372 5.13867 248.999 4.784C248.635 4.42933 248.098 4.252 247.389 4.252C246.885 4.252 246.414 4.34067 245.975 4.518C245.546 4.686 245.177 4.90533 244.869 5.176L244.519 4.672C244.883 4.34533 245.322 4.09333 245.835 3.916C246.348 3.72933 246.885 3.636 247.445 3.636C248.35 3.636 249.046 3.86467 249.531 4.322C250.016 4.77933 250.259 5.46067 250.259 6.366V11H249.587ZM246.955 11.056C246.414 11.056 245.942 10.972 245.541 10.804C245.149 10.6267 244.846 10.3793 244.631 10.062C244.426 9.74467 244.323 9.38067 244.323 8.97C244.323 8.59667 244.407 8.26067 244.575 7.962C244.752 7.654 245.042 7.40667 245.443 7.22C245.844 7.024 246.381 6.926 247.053 6.926H249.741V7.472H247.067C246.311 7.472 245.779 7.612 245.471 7.892C245.172 8.172 245.023 8.522 245.023 8.942C245.023 9.40867 245.2 9.782 245.555 10.062C245.91 10.342 246.409 10.482 247.053 10.482C247.669 10.482 248.187 10.342 248.607 10.062C249.036 9.782 249.354 9.376 249.559 8.844L249.755 9.32C249.559 9.852 249.223 10.2767 248.747 10.594C248.28 10.902 247.683 11.056 246.955 11.056ZM253.563 11V3.692H254.235V5.694L254.165 5.47C254.371 4.882 254.716 4.42933 255.201 4.112C255.687 3.79467 256.293 3.636 257.021 3.636V4.322C256.993 4.322 256.965 4.322 256.937 4.322C256.909 4.31267 256.881 4.308 256.853 4.308C256.041 4.308 255.407 4.56467 254.949 5.078C254.492 5.582 254.263 6.28667 254.263 7.192V11H253.563ZM263.429 11V9.334L263.401 9.082V6.338C263.401 5.65667 263.214 5.13867 262.841 4.784C262.477 4.42933 261.94 4.252 261.231 4.252C260.727 4.252 260.256 4.34067 259.817 4.518C259.388 4.686 259.019 4.90533 258.711 5.176L258.361 4.672C258.725 4.34533 259.164 4.09333 259.677 3.916C260.19 3.72933 260.727 3.636 261.287 3.636C262.192 3.636 262.888 3.86467 263.373 4.322C263.858 4.77933 264.101 5.46067 264.101 6.366V11H263.429ZM260.797 11.056C260.256 11.056 259.784 10.972 259.383 10.804C258.991 10.6267 258.688 10.3793 258.473 10.062C258.268 9.74467 258.165 9.38067 258.165 8.97C258.165 8.59667 258.249 8.26067 258.417 7.962C258.594 7.654 258.884 7.40667 259.285 7.22C259.686 7.024 260.223 6.926 260.895 6.926H263.583V7.472H260.909C260.153 7.472 259.621 7.612 259.313 7.892C259.014 8.172 258.865 8.522 258.865 8.942C258.865 9.40867 259.042 9.782 259.397 10.062C259.752 10.342 260.251 10.482 260.895 10.482C261.511 10.482 262.029 10.342 262.449 10.062C262.878 9.782 263.196 9.376 263.401 8.844L263.597 9.32C263.401 9.852 263.065 10.2767 262.589 10.594C262.122 10.902 261.525 11.056 260.797 11.056ZM273.549 11.056C272.905 11.056 272.41 10.8787 272.065 10.524C271.729 10.1693 271.561 9.684 271.561 9.068V2.096H272.261V8.998C272.261 9.46467 272.378 9.824 272.611 10.076C272.844 10.328 273.18 10.454 273.619 10.454C274.076 10.454 274.454 10.3187 274.753 10.048L275.047 10.538C274.86 10.7153 274.632 10.846 274.361 10.93C274.1 11.014 273.829 11.056 273.549 11.056ZM270.217 4.294V3.692H274.585V4.294H270.217ZM280.387 11.056C279.762 11.056 279.22 10.944 278.763 10.72C278.306 10.4867 277.951 10.1413 277.699 9.684C277.456 9.21733 277.335 8.64333 277.335 7.962V3.692H278.035V7.906C278.035 8.72733 278.245 9.35267 278.665 9.782C279.085 10.2113 279.678 10.426 280.443 10.426C280.994 10.426 281.47 10.3093 281.871 10.076C282.272 9.84267 282.58 9.516 282.795 9.096C283.01 8.66667 283.117 8.16267 283.117 7.584V3.692H283.817V11H283.145V8.97L283.243 9.208C283.028 9.77733 282.669 10.23 282.165 10.566C281.67 10.8927 281.078 11.056 280.387 11.056ZM41.7176 20.636C42.3056 20.636 42.8142 20.7527 43.2436 20.986C43.6822 21.21 44.0229 21.5553 44.2656 22.022C44.5082 22.4793 44.6296 23.0487 44.6296 23.73V28H43.9296V23.786C43.9296 22.9647 43.7289 22.3393 43.3276 21.91C42.9262 21.4807 42.3662 21.266 41.6476 21.266C41.0969 21.266 40.6209 21.3827 40.2196 21.616C39.8182 21.8493 39.5102 22.176 39.2956 22.596C39.0809 23.016 38.9736 23.52 38.9736 24.108V28H38.2736V23.786C38.2736 22.9647 38.0729 22.3393 37.6716 21.91C37.2702 21.4807 36.7102 21.266 35.9916 21.266C35.4409 21.266 34.9649 21.3827 34.5636 21.616C34.1622 21.8493 33.8542 22.176 33.6396 22.596C33.4249 23.016 33.3176 23.52 33.3176 24.108V28H32.6176V20.692H33.2896V22.708L33.1916 22.484C33.4062 21.9147 33.7656 21.4667 34.2696 21.14C34.7736 20.804 35.3802 20.636 36.0896 20.636C36.8176 20.636 37.4289 20.8227 37.9236 21.196C38.4276 21.56 38.7449 22.106 38.8756 22.834L38.6376 22.736C38.8336 22.1107 39.2022 21.6067 39.7436 21.224C40.2849 20.832 40.9429 20.636 41.7176 20.636ZM52.5459 28V26.334L52.5179 26.082V23.338C52.5179 22.6567 52.3312 22.1387 51.9579 21.784C51.5939 21.4293 51.0572 21.252 50.3479 21.252C49.8439 21.252 49.3726 21.3407 48.9339 21.518C48.5046 21.686 48.1359 21.9053 47.8279 22.176L47.4779 21.672C47.8419 21.3453 48.2806 21.0933 48.7939 20.916C49.3072 20.7293 49.8439 20.636 50.4039 20.636C51.3092 20.636 52.0046 20.8647 52.4899 21.322C52.9752 21.7793 53.2179 22.4607 53.2179 23.366V28H52.5459ZM49.9139 28.056C49.3726 28.056 48.9012 27.972 48.4999 27.804C48.1079 27.6267 47.8046 27.3793 47.5899 27.062C47.3846 26.7447 47.2819 26.3807 47.2819 25.97C47.2819 25.5967 47.3659 25.2607 47.5339 24.962C47.7112 24.654 48.0006 24.4067 48.4019 24.22C48.8032 24.024 49.3399 23.926 50.0119 23.926H52.6999V24.472H50.0259C49.2699 24.472 48.7379 24.612 48.4299 24.892C48.1312 25.172 47.9819 25.522 47.9819 25.942C47.9819 26.4087 48.1592 26.782 48.5139 27.062C48.8686 27.342 49.3679 27.482 50.0119 27.482C50.6279 27.482 51.1459 27.342 51.5659 27.062C51.9952 26.782 52.3126 26.376 52.5179 25.844L52.7139 26.32C52.5179 26.852 52.1819 27.2767 51.7059 27.594C51.2392 27.902 50.6419 28.056 49.9139 28.056ZM58.37 28.056C57.7633 28.056 57.194 27.9673 56.662 27.79C56.1393 27.6127 55.7333 27.3887 55.444 27.118L55.766 26.558C56.046 26.8007 56.4193 27.0107 56.886 27.188C57.3527 27.356 57.8567 27.44 58.398 27.44C59.1633 27.44 59.714 27.314 60.05 27.062C60.386 26.81 60.554 26.4787 60.554 26.068C60.554 25.7693 60.4653 25.536 60.288 25.368C60.12 25.1907 59.8913 25.0553 59.602 24.962C59.3127 24.8687 58.9953 24.794 58.65 24.738C58.3047 24.6727 57.9593 24.6027 57.614 24.528C57.2687 24.4533 56.9513 24.346 56.662 24.206C56.3727 24.066 56.1393 23.8747 55.962 23.632C55.794 23.38 55.71 23.0487 55.71 22.638C55.71 22.2647 55.8127 21.9287 56.018 21.63C56.2233 21.3313 56.5313 21.0933 56.942 20.916C57.3527 20.7293 57.866 20.636 58.482 20.636C58.9393 20.636 59.3967 20.7013 59.854 20.832C60.3207 20.9627 60.6987 21.1353 60.988 21.35L60.666 21.91C60.358 21.6767 60.0127 21.5087 59.63 21.406C59.2473 21.3033 58.86 21.252 58.468 21.252C57.7587 21.252 57.236 21.3827 56.9 21.644C56.5733 21.9053 56.41 22.232 56.41 22.624C56.41 22.932 56.494 23.1793 56.662 23.366C56.8393 23.5433 57.0727 23.6833 57.362 23.786C57.6513 23.8793 57.9687 23.9587 58.314 24.024C58.6593 24.08 59.0047 24.1453 59.35 24.22C59.6953 24.2947 60.0127 24.402 60.302 24.542C60.5913 24.6727 60.82 24.8593 60.988 25.102C61.1653 25.3353 61.254 25.6527 61.254 26.054C61.254 26.4553 61.142 26.8053 60.918 27.104C60.7033 27.4027 60.3813 27.636 59.952 27.804C59.5227 27.972 58.9953 28.056 58.37 28.056ZM66.5256 28.056C65.8162 28.056 65.1816 27.8973 64.6216 27.58C64.0709 27.2627 63.6322 26.824 63.3056 26.264C62.9882 25.704 62.8296 25.0647 62.8296 24.346C62.8296 23.618 62.9882 22.974 63.3056 22.414C63.6322 21.854 64.0709 21.42 64.6216 21.112C65.1816 20.7947 65.8162 20.636 66.5256 20.636C67.1136 20.636 67.6456 20.748 68.1216 20.972C68.6069 21.196 68.9989 21.532 69.2976 21.98L68.7796 22.358C68.5182 21.9847 68.1916 21.7093 67.7996 21.532C67.4076 21.3547 66.9829 21.266 66.5256 21.266C65.9562 21.266 65.4429 21.3967 64.9856 21.658C64.5376 21.91 64.1829 22.2693 63.9216 22.736C63.6696 23.1933 63.5436 23.73 63.5436 24.346C63.5436 24.962 63.6696 25.5033 63.9216 25.97C64.1829 26.4273 64.5376 26.7867 64.9856 27.048C65.4429 27.3 65.9562 27.426 66.5256 27.426C66.9829 27.426 67.4076 27.3373 67.7996 27.16C68.1916 26.9827 68.5182 26.7073 68.7796 26.334L69.2976 26.712C68.9989 27.16 68.6069 27.496 68.1216 27.72C67.6456 27.944 67.1136 28.056 66.5256 28.056ZM74.5461 28.056C73.8461 28.056 73.2208 27.8973 72.6701 27.58C72.1288 27.2627 71.6948 26.824 71.3681 26.264C71.0508 25.704 70.8921 25.0647 70.8921 24.346C70.8921 23.618 71.0508 22.9787 71.3681 22.428C71.6948 21.868 72.1288 21.4293 72.6701 21.112C73.2208 20.7947 73.8461 20.636 74.5461 20.636C75.2461 20.636 75.8715 20.7947 76.4221 21.112C76.9728 21.4293 77.4068 21.868 77.7241 22.428C78.0415 22.9787 78.2001 23.618 78.2001 24.346C78.2001 25.0647 78.0415 25.704 77.7241 26.264C77.4068 26.824 76.9728 27.2627 76.4221 27.58C75.8715 27.8973 75.2461 28.056 74.5461 28.056ZM74.5461 27.426C75.1061 27.426 75.6101 27.3 76.0581 27.048C76.5061 26.7867 76.8561 26.4227 77.1081 25.956C77.3601 25.4893 77.4861 24.9527 77.4861 24.346C77.4861 23.73 77.3601 23.1933 77.1081 22.736C76.8561 22.2693 76.5061 21.91 76.0581 21.658C75.6101 21.3967 75.1061 21.266 74.5461 21.266C73.9861 21.266 73.4821 21.3967 73.0341 21.658C72.5955 21.91 72.2455 22.2693 71.9841 22.736C71.7321 23.1933 71.6061 23.73 71.6061 24.346C71.6061 24.9527 71.7321 25.4893 71.9841 25.956C72.2455 26.4227 72.5955 26.7867 73.0341 27.048C73.4821 27.3 73.9861 27.426 74.5461 27.426ZM82.9198 28.056C82.2758 28.056 81.7811 27.8787 81.4358 27.524C81.0998 27.1693 80.9318 26.684 80.9318 26.068V19.096H81.6318V25.998C81.6318 26.4647 81.7484 26.824 81.9818 27.076C82.2151 27.328 82.5511 27.454 82.9898 27.454C83.4471 27.454 83.8251 27.3187 84.1238 27.048L84.4178 27.538C84.2311 27.7153 84.0024 27.846 83.7318 27.93C83.4704 28.014 83.1998 28.056 82.9198 28.056ZM79.5878 21.294V20.692H83.9558V21.294H79.5878ZM91.3959 28V26.334L91.3679 26.082V23.338C91.3679 22.6567 91.1812 22.1387 90.8079 21.784C90.4439 21.4293 89.9072 21.252 89.1979 21.252C88.6939 21.252 88.2226 21.3407 87.7839 21.518C87.3546 21.686 86.9859 21.9053 86.6779 22.176L86.3279 21.672C86.6919 21.3453 87.1306 21.0933 87.6439 20.916C88.1572 20.7293 88.6939 20.636 89.2539 20.636C90.1592 20.636 90.8546 20.8647 91.3399 21.322C91.8252 21.7793 92.0679 22.4607 92.0679 23.366V28H91.3959ZM88.7639 28.056C88.2226 28.056 87.7512 27.972 87.3499 27.804C86.9579 27.6267 86.6546 27.3793 86.4399 27.062C86.2346 26.7447 86.1319 26.3807 86.1319 25.97C86.1319 25.5967 86.2159 25.2607 86.3839 24.962C86.5612 24.654 86.8506 24.4067 87.2519 24.22C87.6532 24.024 88.1899 23.926 88.8619 23.926H91.5499V24.472H88.8759C88.1199 24.472 87.5879 24.612 87.2799 24.892C86.9812 25.172 86.8319 25.522 86.8319 25.942C86.8319 26.4087 87.0092 26.782 87.3639 27.062C87.7186 27.342 88.2179 27.482 88.8619 27.482C89.4779 27.482 89.9959 27.342 90.4159 27.062C90.8452 26.782 91.1626 26.376 91.3679 25.844L91.5639 26.32C91.3679 26.852 91.0319 27.2767 90.5559 27.594C90.0892 27.902 89.4919 28.056 88.7639 28.056ZM99.2197 30.772C98.8837 30.772 98.5664 30.716 98.2677 30.604C97.9784 30.492 97.731 30.3287 97.5257 30.114L97.8757 29.582C98.0624 29.778 98.263 29.9227 98.4777 30.016C98.7017 30.1093 98.9537 30.156 99.2337 30.156C99.5697 30.156 99.8637 30.0627 100.116 29.876C100.377 29.6893 100.62 29.3487 100.844 28.854L101.348 27.734L101.446 27.608L104.54 20.692H105.254L101.502 28.994C101.306 29.442 101.091 29.792 100.858 30.044C100.634 30.3053 100.386 30.492 100.116 30.604C99.845 30.716 99.5464 30.772 99.2197 30.772ZM101.334 28.182L97.9457 20.692H98.6877L101.768 27.566L101.334 28.182ZM111.22 28V17.612H111.92V28H111.22ZM115.29 28V17.612H115.99V28H115.29ZM122.329 28.056C121.591 28.056 120.938 27.8973 120.369 27.58C119.809 27.2627 119.365 26.824 119.039 26.264C118.721 25.704 118.563 25.0647 118.563 24.346C118.563 23.618 118.712 22.9787 119.011 22.428C119.319 21.868 119.739 21.4293 120.271 21.112C120.803 20.7947 121.4 20.636 122.063 20.636C122.725 20.636 123.318 20.79 123.841 21.098C124.373 21.406 124.788 21.84 125.087 22.4C125.395 22.9507 125.549 23.59 125.549 24.318C125.549 24.346 125.544 24.3787 125.535 24.416C125.535 24.444 125.535 24.4767 125.535 24.514H119.081V23.968H125.157L124.877 24.234C124.886 23.6647 124.765 23.156 124.513 22.708C124.27 22.2507 123.939 21.896 123.519 21.644C123.099 21.3827 122.613 21.252 122.063 21.252C121.521 21.252 121.036 21.3827 120.607 21.644C120.187 21.896 119.855 22.2507 119.613 22.708C119.37 23.156 119.249 23.6693 119.249 24.248V24.374C119.249 24.9713 119.379 25.5033 119.641 25.97C119.911 26.4273 120.28 26.7867 120.747 27.048C121.213 27.3 121.745 27.426 122.343 27.426C122.809 27.426 123.243 27.342 123.645 27.174C124.055 27.006 124.401 26.7493 124.681 26.404L125.087 26.866C124.769 27.258 124.368 27.5567 123.883 27.762C123.407 27.958 122.889 28.056 122.329 28.056ZM129.845 28L126.555 20.692H127.297L130.377 27.608H130.041L133.149 20.692H133.863L130.559 28H129.845ZM140.201 28V26.334L140.173 26.082V23.338C140.173 22.6567 139.987 22.1387 139.613 21.784C139.249 21.4293 138.713 21.252 138.003 21.252C137.499 21.252 137.028 21.3407 136.589 21.518C136.16 21.686 135.791 21.9053 135.483 22.176L135.133 21.672C135.497 21.3453 135.936 21.0933 136.449 20.916C136.963 20.7293 137.499 20.636 138.059 20.636C138.965 20.636 139.66 20.8647 140.145 21.322C140.631 21.7793 140.873 22.4607 140.873 23.366V28H140.201ZM137.569 28.056C137.028 28.056 136.557 27.972 136.155 27.804C135.763 27.6267 135.46 27.3793 135.245 27.062C135.04 26.7447 134.937 26.3807 134.937 25.97C134.937 25.5967 135.021 25.2607 135.189 24.962C135.367 24.654 135.656 24.4067 136.057 24.22C136.459 24.024 136.995 23.926 137.667 23.926H140.355V24.472H137.681C136.925 24.472 136.393 24.612 136.085 24.892C135.787 25.172 135.637 25.522 135.637 25.942C135.637 26.4087 135.815 26.782 136.169 27.062C136.524 27.342 137.023 27.482 137.667 27.482C138.283 27.482 138.801 27.342 139.221 27.062C139.651 26.782 139.968 26.376 140.173 25.844L140.369 26.32C140.173 26.852 139.837 27.2767 139.361 27.594C138.895 27.902 138.297 28.056 137.569 28.056ZM148.193 28V20.692H148.865V22.694L148.795 22.47C149 21.882 149.346 21.4293 149.831 21.112C150.316 20.7947 150.923 20.636 151.651 20.636V21.322C151.623 21.322 151.595 21.322 151.567 21.322C151.539 21.3127 151.511 21.308 151.483 21.308C150.671 21.308 150.036 21.5647 149.579 22.078C149.122 22.582 148.893 23.2867 148.893 24.192V28H148.193ZM156.899 28.056C156.162 28.056 155.509 27.8973 154.939 27.58C154.379 27.2627 153.936 26.824 153.609 26.264C153.292 25.704 153.133 25.0647 153.133 24.346C153.133 23.618 153.283 22.9787 153.581 22.428C153.889 21.868 154.309 21.4293 154.841 21.112C155.373 20.7947 155.971 20.636 156.633 20.636C157.296 20.636 157.889 20.79 158.411 21.098C158.943 21.406 159.359 21.84 159.657 22.4C159.965 22.9507 160.119 23.59 160.119 24.318C160.119 24.346 160.115 24.3787 160.105 24.416C160.105 24.444 160.105 24.4767 160.105 24.514H153.651V23.968H159.727L159.447 24.234C159.457 23.6647 159.335 23.156 159.083 22.708C158.841 22.2507 158.509 21.896 158.089 21.644C157.669 21.3827 157.184 21.252 156.633 21.252C156.092 21.252 155.607 21.3827 155.177 21.644C154.757 21.896 154.426 22.2507 154.183 22.708C153.941 23.156 153.819 23.6693 153.819 24.248V24.374C153.819 24.9713 153.95 25.5033 154.211 25.97C154.482 26.4273 154.851 26.7867 155.317 27.048C155.784 27.3 156.316 27.426 156.913 27.426C157.38 27.426 157.814 27.342 158.215 27.174C158.626 27.006 158.971 26.7493 159.251 26.404L159.657 26.866C159.34 27.258 158.939 27.5567 158.453 27.762C157.977 27.958 157.459 28.056 156.899 28.056ZM165.743 30.772C165.08 30.772 164.45 30.6693 163.853 30.464C163.256 30.2587 162.77 29.974 162.397 29.61L162.775 29.078C163.139 29.414 163.573 29.6753 164.077 29.862C164.59 30.0487 165.141 30.142 165.729 30.142C166.709 30.142 167.428 29.9133 167.885 29.456C168.352 28.9987 168.585 28.28 168.585 27.3V25.27L168.725 24.178L168.613 23.086V20.692H169.285V27.216C169.285 28.4387 168.986 29.3347 168.389 29.904C167.801 30.4827 166.919 30.772 165.743 30.772ZM165.547 27.734C164.856 27.734 164.236 27.5847 163.685 27.286C163.144 26.978 162.71 26.558 162.383 26.026C162.066 25.4847 161.907 24.8687 161.907 24.178C161.907 23.478 162.066 22.862 162.383 22.33C162.71 21.798 163.144 21.3827 163.685 21.084C164.236 20.7853 164.856 20.636 165.547 20.636C166.21 20.636 166.802 20.7807 167.325 21.07C167.857 21.35 168.277 21.756 168.585 22.288C168.893 22.8107 169.047 23.4407 169.047 24.178C169.047 24.906 168.893 25.536 168.585 26.068C168.277 26.6 167.857 27.0107 167.325 27.3C166.802 27.5893 166.21 27.734 165.547 27.734ZM165.603 27.104C166.191 27.104 166.709 26.9827 167.157 26.74C167.605 26.488 167.955 26.1427 168.207 25.704C168.468 25.256 168.599 24.7473 168.599 24.178C168.599 23.5993 168.468 23.0907 168.207 22.652C167.955 22.2133 167.605 21.8727 167.157 21.63C166.709 21.3873 166.191 21.266 165.603 21.266C165.034 21.266 164.52 21.3873 164.063 21.63C163.615 21.8727 163.26 22.2133 162.999 22.652C162.747 23.0907 162.621 23.5993 162.621 24.178C162.621 24.7473 162.747 25.256 162.999 25.704C163.26 26.1427 163.615 26.488 164.063 26.74C164.52 26.9827 165.034 27.104 165.603 27.104ZM172.668 28V20.692H173.368V28H172.668ZM173.018 18.914C172.859 18.914 172.724 18.858 172.612 18.746C172.5 18.634 172.444 18.5033 172.444 18.354C172.444 18.1953 172.5 18.06 172.612 17.948C172.724 17.836 172.859 17.78 173.018 17.78C173.186 17.78 173.321 17.836 173.424 17.948C173.536 18.0507 173.592 18.1813 173.592 18.34C173.592 18.4987 173.536 18.634 173.424 18.746C173.321 18.858 173.186 18.914 173.018 18.914ZM178.586 28.056C177.98 28.056 177.41 27.9673 176.878 27.79C176.356 27.6127 175.95 27.3887 175.66 27.118L175.982 26.558C176.262 26.8007 176.636 27.0107 177.102 27.188C177.569 27.356 178.073 27.44 178.614 27.44C179.38 27.44 179.93 27.314 180.266 27.062C180.602 26.81 180.77 26.4787 180.77 26.068C180.77 25.7693 180.682 25.536 180.504 25.368C180.336 25.1907 180.108 25.0553 179.818 24.962C179.529 24.8687 179.212 24.794 178.866 24.738C178.521 24.6727 178.176 24.6027 177.83 24.528C177.485 24.4533 177.168 24.346 176.878 24.206C176.589 24.066 176.356 23.8747 176.178 23.632C176.01 23.38 175.926 23.0487 175.926 22.638C175.926 22.2647 176.029 21.9287 176.234 21.63C176.44 21.3313 176.748 21.0933 177.158 20.916C177.569 20.7293 178.082 20.636 178.698 20.636C179.156 20.636 179.613 20.7013 180.07 20.832C180.537 20.9627 180.915 21.1353 181.204 21.35L180.882 21.91C180.574 21.6767 180.229 21.5087 179.846 21.406C179.464 21.3033 179.076 21.252 178.684 21.252C177.975 21.252 177.452 21.3827 177.116 21.644C176.79 21.9053 176.626 22.232 176.626 22.624C176.626 22.932 176.71 23.1793 176.878 23.366C177.056 23.5433 177.289 23.6833 177.578 23.786C177.868 23.8793 178.185 23.9587 178.53 24.024C178.876 24.08 179.221 24.1453 179.566 24.22C179.912 24.2947 180.229 24.402 180.518 24.542C180.808 24.6727 181.036 24.8593 181.204 25.102C181.382 25.3353 181.47 25.6527 181.47 26.054C181.47 26.4553 181.358 26.8053 181.134 27.104C180.92 27.4027 180.598 27.636 180.168 27.804C179.739 27.972 179.212 28.056 178.586 28.056ZM185.972 28.056C185.328 28.056 184.833 27.8787 184.488 27.524C184.152 27.1693 183.984 26.684 183.984 26.068V19.096H184.684V25.998C184.684 26.4647 184.8 26.824 185.034 27.076C185.267 27.328 185.603 27.454 186.042 27.454C186.499 27.454 186.877 27.3187 187.176 27.048L187.47 27.538C187.283 27.7153 187.054 27.846 186.784 27.93C186.522 28.014 186.252 28.056 185.972 28.056ZM182.64 21.294V20.692H187.008V21.294H182.64ZM189.842 28V20.692H190.514V22.694L190.444 22.47C190.649 21.882 190.995 21.4293 191.48 21.112C191.965 20.7947 192.572 20.636 193.3 20.636V21.322C193.272 21.322 193.244 21.322 193.216 21.322C193.188 21.3127 193.16 21.308 193.132 21.308C192.32 21.308 191.685 21.5647 191.228 22.078C190.771 22.582 190.542 23.2867 190.542 24.192V28H189.842ZM198.436 28.056C197.736 28.056 197.111 27.8973 196.56 27.58C196.019 27.2627 195.585 26.824 195.258 26.264C194.941 25.704 194.782 25.0647 194.782 24.346C194.782 23.618 194.941 22.9787 195.258 22.428C195.585 21.868 196.019 21.4293 196.56 21.112C197.111 20.7947 197.736 20.636 198.436 20.636C199.136 20.636 199.762 20.7947 200.312 21.112C200.863 21.4293 201.297 21.868 201.614 22.428C201.932 22.9787 202.09 23.618 202.09 24.346C202.09 25.0647 201.932 25.704 201.614 26.264C201.297 26.824 200.863 27.2627 200.312 27.58C199.762 27.8973 199.136 28.056 198.436 28.056ZM198.436 27.426C198.996 27.426 199.5 27.3 199.948 27.048C200.396 26.7867 200.746 26.4227 200.998 25.956C201.25 25.4893 201.376 24.9527 201.376 24.346C201.376 23.73 201.25 23.1933 200.998 22.736C200.746 22.2693 200.396 21.91 199.948 21.658C199.5 21.3967 198.996 21.266 198.436 21.266C197.876 21.266 197.372 21.3967 196.924 21.658C196.486 21.91 196.136 22.2693 195.874 22.736C195.622 23.1933 195.496 23.73 195.496 24.346C195.496 24.9527 195.622 25.4893 195.874 25.956C196.136 26.4227 196.486 26.7867 196.924 27.048C197.372 27.3 197.876 27.426 198.436 27.426ZM211.512 28.056C210.83 28.056 210.214 27.902 209.664 27.594C209.122 27.2767 208.693 26.838 208.376 26.278C208.058 25.718 207.9 25.074 207.9 24.346C207.9 23.6087 208.058 22.9647 208.376 22.414C208.693 21.854 209.122 21.42 209.664 21.112C210.214 20.7947 210.83 20.636 211.512 20.636C212.156 20.636 212.734 20.7853 213.248 21.084C213.77 21.3827 214.181 21.8073 214.48 22.358C214.788 22.9087 214.942 23.5713 214.942 24.346C214.942 25.102 214.792 25.76 214.494 26.32C214.195 26.88 213.784 27.3093 213.262 27.608C212.748 27.9067 212.165 28.056 211.512 28.056ZM211.554 27.426C212.114 27.426 212.613 27.3 213.052 27.048C213.5 26.7867 213.85 26.4227 214.102 25.956C214.363 25.4893 214.494 24.9527 214.494 24.346C214.494 23.73 214.363 23.1933 214.102 22.736C213.85 22.2693 213.5 21.91 213.052 21.658C212.613 21.3967 212.114 21.266 211.554 21.266C210.994 21.266 210.49 21.3967 210.042 21.658C209.603 21.91 209.253 22.2693 208.992 22.736C208.74 23.1933 208.614 23.73 208.614 24.346C208.614 24.9527 208.74 25.4893 208.992 25.956C209.253 26.4227 209.603 26.7867 210.042 27.048C210.49 27.3 210.994 27.426 211.554 27.426ZM214.508 28V25.606L214.634 24.332L214.494 23.058V17.612H215.194V28H214.508ZM221.533 28.056C220.796 28.056 220.142 27.8973 219.573 27.58C219.013 27.2627 218.57 26.824 218.243 26.264C217.926 25.704 217.767 25.0647 217.767 24.346C217.767 23.618 217.916 22.9787 218.215 22.428C218.523 21.868 218.943 21.4293 219.475 21.112C220.007 20.7947 220.604 20.636 221.267 20.636C221.93 20.636 222.522 20.79 223.045 21.098C223.577 21.406 223.992 21.84 224.291 22.4C224.599 22.9507 224.753 23.59 224.753 24.318C224.753 24.346 224.748 24.3787 224.739 24.416C224.739 24.444 224.739 24.4767 224.739 24.514H218.285V23.968H224.361L224.081 24.234C224.09 23.6647 223.969 23.156 223.717 22.708C223.474 22.2507 223.143 21.896 222.723 21.644C222.303 21.3827 221.818 21.252 221.267 21.252C220.726 21.252 220.24 21.3827 219.811 21.644C219.391 21.896 219.06 22.2507 218.817 22.708C218.574 23.156 218.453 23.6693 218.453 24.248V24.374C218.453 24.9713 218.584 25.5033 218.845 25.97C219.116 26.4273 219.484 26.7867 219.951 27.048C220.418 27.3 220.95 27.426 221.547 27.426C222.014 27.426 222.448 27.342 222.849 27.174C223.26 27.006 223.605 26.7493 223.885 26.404L224.291 26.866C223.974 27.258 223.572 27.5567 223.087 27.762C222.611 27.958 222.093 28.056 221.533 28.056ZM233.202 28.056C232.595 28.056 232.026 27.9673 231.494 27.79C230.971 27.6127 230.565 27.3887 230.276 27.118L230.598 26.558C230.878 26.8007 231.251 27.0107 231.718 27.188C232.185 27.356 232.689 27.44 233.23 27.44C233.995 27.44 234.546 27.314 234.882 27.062C235.218 26.81 235.386 26.4787 235.386 26.068C235.386 25.7693 235.297 25.536 235.12 25.368C234.952 25.1907 234.723 25.0553 234.434 24.962C234.145 24.8687 233.827 24.794 233.482 24.738C233.137 24.6727 232.791 24.6027 232.446 24.528C232.101 24.4533 231.783 24.346 231.494 24.206C231.205 24.066 230.971 23.8747 230.794 23.632C230.626 23.38 230.542 23.0487 230.542 22.638C230.542 22.2647 230.645 21.9287 230.85 21.63C231.055 21.3313 231.363 21.0933 231.774 20.916C232.185 20.7293 232.698 20.636 233.314 20.636C233.771 20.636 234.229 20.7013 234.686 20.832C235.153 20.9627 235.531 21.1353 235.82 21.35L235.498 21.91C235.19 21.6767 234.845 21.5087 234.462 21.406C234.079 21.3033 233.692 21.252 233.3 21.252C232.591 21.252 232.068 21.3827 231.732 21.644C231.405 21.9053 231.242 22.232 231.242 22.624C231.242 22.932 231.326 23.1793 231.494 23.366C231.671 23.5433 231.905 23.6833 232.194 23.786C232.483 23.8793 232.801 23.9587 233.146 24.024C233.491 24.08 233.837 24.1453 234.182 24.22C234.527 24.2947 234.845 24.402 235.134 24.542C235.423 24.6727 235.652 24.8593 235.82 25.102C235.997 25.3353 236.086 25.6527 236.086 26.054C236.086 26.4553 235.974 26.8053 235.75 27.104C235.535 27.4027 235.213 27.636 234.784 27.804C234.355 27.972 233.827 28.056 233.202 28.056ZM241.428 28.056C240.802 28.056 240.261 27.944 239.804 27.72C239.346 27.4867 238.992 27.1413 238.74 26.684C238.497 26.2173 238.376 25.6433 238.376 24.962V20.692H239.076V24.906C239.076 25.7273 239.286 26.3527 239.706 26.782C240.126 27.2113 240.718 27.426 241.484 27.426C242.034 27.426 242.51 27.3093 242.912 27.076C243.313 26.8427 243.621 26.516 243.836 26.096C244.05 25.6667 244.158 25.1627 244.158 24.584V20.692H244.858V28H244.186V25.97L244.284 26.208C244.069 26.7773 243.71 27.23 243.206 27.566C242.711 27.8927 242.118 28.056 241.428 28.056ZM250.093 28.056C249.486 28.056 248.917 27.9673 248.385 27.79C247.862 27.6127 247.456 27.3887 247.167 27.118L247.489 26.558C247.769 26.8007 248.142 27.0107 248.609 27.188C249.076 27.356 249.58 27.44 250.121 27.44C250.886 27.44 251.437 27.314 251.773 27.062C252.109 26.81 252.277 26.4787 252.277 26.068C252.277 25.7693 252.188 25.536 252.011 25.368C251.843 25.1907 251.614 25.0553 251.325 24.962C251.036 24.8687 250.718 24.794 250.373 24.738C250.028 24.6727 249.682 24.6027 249.337 24.528C248.992 24.4533 248.674 24.346 248.385 24.206C248.096 24.066 247.862 23.8747 247.685 23.632C247.517 23.38 247.433 23.0487 247.433 22.638C247.433 22.2647 247.536 21.9287 247.741 21.63C247.946 21.3313 248.254 21.0933 248.665 20.916C249.076 20.7293 249.589 20.636 250.205 20.636C250.662 20.636 251.12 20.7013 251.577 20.832C252.044 20.9627 252.422 21.1353 252.711 21.35L252.389 21.91C252.081 21.6767 251.736 21.5087 251.353 21.406C250.97 21.3033 250.583 21.252 250.191 21.252C249.482 21.252 248.959 21.3827 248.623 21.644C248.296 21.9053 248.133 22.232 248.133 22.624C248.133 22.932 248.217 23.1793 248.385 23.366C248.562 23.5433 248.796 23.6833 249.085 23.786C249.374 23.8793 249.692 23.9587 250.037 24.024C250.382 24.08 250.728 24.1453 251.073 24.22C251.418 24.2947 251.736 24.402 252.025 24.542C252.314 24.6727 252.543 24.8593 252.711 25.102C252.888 25.3353 252.977 25.6527 252.977 26.054C252.977 26.4553 252.865 26.8053 252.641 27.104C252.426 27.4027 252.104 27.636 251.675 27.804C251.246 27.972 250.718 28.056 250.093 28.056ZM107.3 45V43.334L107.272 43.082V40.338C107.272 39.6567 107.085 39.1387 106.712 38.784C106.348 38.4293 105.811 38.252 105.102 38.252C104.598 38.252 104.126 38.3407 103.688 38.518C103.258 38.686 102.89 38.9053 102.582 39.176L102.232 38.672C102.596 38.3453 103.034 38.0933 103.548 37.916C104.061 37.7293 104.598 37.636 105.158 37.636C106.063 37.636 106.758 37.8647 107.244 38.322C107.729 38.7793 107.972 39.4607 107.972 40.366V45H107.3ZM104.668 45.056C104.126 45.056 103.655 44.972 103.254 44.804C102.862 44.6267 102.558 44.3793 102.344 44.062C102.138 43.7447 102.036 43.3807 102.036 42.97C102.036 42.5967 102.12 42.2607 102.288 41.962C102.465 41.654 102.754 41.4067 103.156 41.22C103.557 41.024 104.094 40.926 104.766 40.926H107.454V41.472H104.78C104.024 41.472 103.492 41.612 103.184 41.892C102.885 42.172 102.736 42.522 102.736 42.942C102.736 43.4087 102.913 43.782 103.268 44.062C103.622 44.342 104.122 44.482 104.766 44.482C105.382 44.482 105.9 44.342 106.32 44.062C106.749 43.782 107.066 43.376 107.272 42.844L107.468 43.32C107.272 43.852 106.936 44.2767 106.46 44.594C105.993 44.902 105.396 45.056 104.668 45.056ZM114.174 45.056C113.464 45.056 112.83 44.8973 112.27 44.58C111.719 44.2627 111.28 43.824 110.954 43.264C110.636 42.704 110.478 42.0647 110.478 41.346C110.478 40.618 110.636 39.974 110.954 39.414C111.28 38.854 111.719 38.42 112.27 38.112C112.83 37.7947 113.464 37.636 114.174 37.636C114.762 37.636 115.294 37.748 115.77 37.972C116.255 38.196 116.647 38.532 116.946 38.98L116.428 39.358C116.166 38.9847 115.84 38.7093 115.448 38.532C115.056 38.3547 114.631 38.266 114.174 38.266C113.604 38.266 113.091 38.3967 112.634 38.658C112.186 38.91 111.831 39.2693 111.57 39.736C111.318 40.1933 111.192 40.73 111.192 41.346C111.192 41.962 111.318 42.5033 111.57 42.97C111.831 43.4273 112.186 43.7867 112.634 44.048C113.091 44.3 113.604 44.426 114.174 44.426C114.631 44.426 115.056 44.3373 115.448 44.16C115.84 43.9827 116.166 43.7073 116.428 43.334L116.946 43.712C116.647 44.16 116.255 44.496 115.77 44.72C115.294 44.944 114.762 45.056 114.174 45.056ZM121.671 45.056C121.027 45.056 120.533 44.8787 120.187 44.524C119.851 44.1693 119.683 43.684 119.683 43.068V36.096H120.383V42.998C120.383 43.4647 120.5 43.824 120.733 44.076C120.967 44.328 121.303 44.454 121.741 44.454C122.199 44.454 122.577 44.3187 122.875 44.048L123.169 44.538C122.983 44.7153 122.754 44.846 122.483 44.93C122.222 45.014 121.951 45.056 121.671 45.056ZM118.339 38.294V37.692H122.707V38.294H118.339ZM125.541 45V37.692H126.241V45H125.541ZM125.891 35.914C125.733 35.914 125.597 35.858 125.485 35.746C125.373 35.634 125.317 35.5033 125.317 35.354C125.317 35.1953 125.373 35.06 125.485 34.948C125.597 34.836 125.733 34.78 125.891 34.78C126.059 34.78 126.195 34.836 126.297 34.948C126.409 35.0507 126.465 35.1813 126.465 35.34C126.465 35.4987 126.409 35.634 126.297 35.746C126.195 35.858 126.059 35.914 125.891 35.914ZM131.46 45L128.17 37.692H128.912L131.992 44.608H131.656L134.764 37.692H135.478L132.174 45H131.46ZM137.428 45V37.692H138.128V45H137.428ZM137.778 35.914C137.62 35.914 137.484 35.858 137.372 35.746C137.26 35.634 137.204 35.5033 137.204 35.354C137.204 35.1953 137.26 35.06 137.372 34.948C137.484 34.836 137.62 34.78 137.778 34.78C137.946 34.78 138.082 34.836 138.184 34.948C138.296 35.0507 138.352 35.1813 138.352 35.34C138.352 35.4987 138.296 35.634 138.184 35.746C138.082 35.858 137.946 35.914 137.778 35.914ZM144.313 45.056C143.631 45.056 143.015 44.902 142.465 44.594C141.923 44.2767 141.494 43.838 141.177 43.278C140.859 42.718 140.701 42.074 140.701 41.346C140.701 40.6087 140.859 39.9647 141.177 39.414C141.494 38.854 141.923 38.42 142.465 38.112C143.015 37.7947 143.631 37.636 144.313 37.636C144.957 37.636 145.535 37.7853 146.049 38.084C146.571 38.3827 146.982 38.8073 147.281 39.358C147.589 39.9087 147.743 40.5713 147.743 41.346C147.743 42.102 147.593 42.76 147.295 43.32C146.996 43.88 146.585 44.3093 146.063 44.608C145.549 44.9067 144.966 45.056 144.313 45.056ZM144.355 44.426C144.915 44.426 145.414 44.3 145.853 44.048C146.301 43.7867 146.651 43.4227 146.903 42.956C147.164 42.4893 147.295 41.9527 147.295 41.346C147.295 40.73 147.164 40.1933 146.903 39.736C146.651 39.2693 146.301 38.91 145.853 38.658C145.414 38.3967 144.915 38.266 144.355 38.266C143.795 38.266 143.291 38.3967 142.843 38.658C142.404 38.91 142.054 39.2693 141.793 39.736C141.541 40.1933 141.415 40.73 141.415 41.346C141.415 41.9527 141.541 42.4893 141.793 42.956C142.054 43.4227 142.404 43.7867 142.843 44.048C143.291 44.3 143.795 44.426 144.355 44.426ZM147.309 45V42.606L147.435 41.332L147.295 40.058V34.612H147.995V45H147.309ZM155.972 45V43.334L155.944 43.082V40.338C155.944 39.6567 155.757 39.1387 155.384 38.784C155.02 38.4293 154.483 38.252 153.774 38.252C153.27 38.252 152.799 38.3407 152.36 38.518C151.931 38.686 151.562 38.9053 151.254 39.176L150.904 38.672C151.268 38.3453 151.707 38.0933 152.22 37.916C152.733 37.7293 153.27 37.636 153.83 37.636C154.735 37.636 155.431 37.8647 155.916 38.322C156.401 38.7793 156.644 39.4607 156.644 40.366V45H155.972ZM153.34 45.056C152.799 45.056 152.327 44.972 151.926 44.804C151.534 44.6267 151.231 44.3793 151.016 44.062C150.811 43.7447 150.708 43.3807 150.708 42.97C150.708 42.5967 150.792 42.2607 150.96 41.962C151.137 41.654 151.427 41.4067 151.828 41.22C152.229 41.024 152.766 40.926 153.438 40.926H156.126V41.472H153.452C152.696 41.472 152.164 41.612 151.856 41.892C151.557 42.172 151.408 42.522 151.408 42.942C151.408 43.4087 151.585 43.782 151.94 44.062C152.295 44.342 152.794 44.482 153.438 44.482C154.054 44.482 154.572 44.342 154.992 44.062C155.421 43.782 155.739 43.376 155.944 42.844L156.14 43.32C155.944 43.852 155.608 44.2767 155.132 44.594C154.665 44.902 154.068 45.056 153.34 45.056ZM162.762 45.056C162.081 45.056 161.465 44.902 160.914 44.594C160.373 44.2767 159.943 43.838 159.626 43.278C159.309 42.718 159.15 42.074 159.15 41.346C159.15 40.6087 159.309 39.9647 159.626 39.414C159.943 38.854 160.373 38.42 160.914 38.112C161.465 37.7947 162.081 37.636 162.762 37.636C163.406 37.636 163.985 37.7853 164.498 38.084C165.021 38.3827 165.431 38.8073 165.73 39.358C166.038 39.9087 166.192 40.5713 166.192 41.346C166.192 42.102 166.043 42.76 165.744 43.32C165.445 43.88 165.035 44.3093 164.512 44.608C163.999 44.9067 163.415 45.056 162.762 45.056ZM162.804 44.426C163.364 44.426 163.863 44.3 164.302 44.048C164.75 43.7867 165.1 43.4227 165.352 42.956C165.613 42.4893 165.744 41.9527 165.744 41.346C165.744 40.73 165.613 40.1933 165.352 39.736C165.1 39.2693 164.75 38.91 164.302 38.658C163.863 38.3967 163.364 38.266 162.804 38.266C162.244 38.266 161.74 38.3967 161.292 38.658C160.853 38.91 160.503 39.2693 160.242 39.736C159.99 40.1933 159.864 40.73 159.864 41.346C159.864 41.9527 159.99 42.4893 160.242 42.956C160.503 43.4227 160.853 43.7867 161.292 44.048C161.74 44.3 162.244 44.426 162.804 44.426ZM165.758 45V42.606L165.884 41.332L165.744 40.058V34.612H166.444V45H165.758ZM172.783 45.056C172.046 45.056 171.393 44.8973 170.823 44.58C170.263 44.2627 169.82 43.824 169.493 43.264C169.176 42.704 169.017 42.0647 169.017 41.346C169.017 40.618 169.167 39.9787 169.465 39.428C169.773 38.868 170.193 38.4293 170.725 38.112C171.257 37.7947 171.855 37.636 172.517 37.636C173.18 37.636 173.773 37.79 174.295 38.098C174.827 38.406 175.243 38.84 175.541 39.4C175.849 39.9507 176.003 40.59 176.003 41.318C176.003 41.346 175.999 41.3787 175.989 41.416C175.989 41.444 175.989 41.4767 175.989 41.514H169.535V40.968H175.611L175.331 41.234C175.341 40.6647 175.219 40.156 174.967 39.708C174.725 39.2507 174.393 38.896 173.973 38.644C173.553 38.3827 173.068 38.252 172.517 38.252C171.976 38.252 171.491 38.3827 171.061 38.644C170.641 38.896 170.31 39.2507 170.067 39.708C169.825 40.156 169.703 40.6693 169.703 41.248V41.374C169.703 41.9713 169.834 42.5033 170.095 42.97C170.366 43.4273 170.735 43.7867 171.201 44.048C171.668 44.3 172.2 44.426 172.797 44.426C173.264 44.426 173.698 44.342 174.099 44.174C174.51 44.006 174.855 43.7493 175.135 43.404L175.541 43.866C175.224 44.258 174.823 44.5567 174.337 44.762C173.861 44.958 173.343 45.056 172.783 45.056ZM180.437 45.056C179.83 45.056 179.261 44.9673 178.729 44.79C178.206 44.6127 177.8 44.3887 177.511 44.118L177.833 43.558C178.113 43.8007 178.486 44.0107 178.953 44.188C179.42 44.356 179.924 44.44 180.465 44.44C181.23 44.44 181.781 44.314 182.117 44.062C182.453 43.81 182.621 43.4787 182.621 43.068C182.621 42.7693 182.532 42.536 182.355 42.368C182.187 42.1907 181.958 42.0553 181.669 41.962C181.38 41.8687 181.062 41.794 180.717 41.738C180.372 41.6727 180.026 41.6027 179.681 41.528C179.336 41.4533 179.018 41.346 178.729 41.206C178.44 41.066 178.206 40.8747 178.029 40.632C177.861 40.38 177.777 40.0487 177.777 39.638C177.777 39.2647 177.88 38.9287 178.085 38.63C178.29 38.3313 178.598 38.0933 179.009 37.916C179.42 37.7293 179.933 37.636 180.549 37.636C181.006 37.636 181.464 37.7013 181.921 37.832C182.388 37.9627 182.766 38.1353 183.055 38.35L182.733 38.91C182.425 38.6767 182.08 38.5087 181.697 38.406C181.314 38.3033 180.927 38.252 180.535 38.252C179.826 38.252 179.303 38.3827 178.967 38.644C178.64 38.9053 178.477 39.232 178.477 39.624C178.477 39.932 178.561 40.1793 178.729 40.366C178.906 40.5433 179.14 40.6833 179.429 40.786C179.718 40.8793 180.036 40.9587 180.381 41.024C180.726 41.08 181.072 41.1453 181.417 41.22C181.762 41.2947 182.08 41.402 182.369 41.542C182.658 41.6727 182.887 41.8593 183.055 42.102C183.232 42.3353 183.321 42.6527 183.321 43.054C183.321 43.4553 183.209 43.8053 182.985 44.104C182.77 44.4027 182.448 44.636 182.019 44.804C181.59 44.972 181.062 45.056 180.437 45.056Z" fill="#6C6C6C"/>
</svg>
