<svg width="126" height="17" viewBox="0 0 126 17" fill="none" xmlns="http://www.w3.org/2000/svg">
<path d="M2.32525 6.456H7.89325V8.168H2.32525V6.456ZM2.48525 11.256H8.80525V13H0.405253V1.8H8.58125V3.544H2.48525V11.256ZM22.196 4.36C22.8787 4.36 23.4813 4.49333 24.004 4.76C24.5373 5.02667 24.9533 5.43733 25.252 5.992C25.5507 6.536 25.7 7.24 25.7 8.104V13H23.7V8.36C23.7 7.60267 23.5347 7.03733 23.204 6.664C22.8733 6.29067 22.3987 6.104 21.78 6.104C21.3427 6.104 20.9533 6.2 20.612 6.392C20.2813 6.584 20.02 6.86667 19.828 7.24C19.6467 7.61333 19.556 8.088 19.556 8.664V13H17.556V8.36C17.556 7.60267 17.3907 7.03733 17.06 6.664C16.7293 6.29067 16.2547 6.104 15.636 6.104C15.1987 6.104 14.8093 6.2 14.468 6.392C14.1373 6.584 13.876 6.86667 13.684 7.24C13.5027 7.61333 13.412 8.088 13.412 8.664V13H11.412V4.456H13.316V6.728L12.98 6.056C13.268 5.50133 13.684 5.08 14.228 4.792C14.7827 4.504 15.412 4.36 16.116 4.36C16.916 4.36 17.6093 4.55733 18.196 4.952C18.7933 5.34667 19.188 5.944 19.38 6.744L18.596 6.472C18.8733 5.832 19.332 5.32 19.972 4.936C20.612 4.552 21.3533 4.36 22.196 4.36ZM33.4718 13.112C32.7784 13.112 32.1438 12.952 31.5678 12.632C31.0024 12.312 30.5491 11.832 30.2078 11.192C29.8771 10.5413 29.7118 9.72 29.7118 8.728C29.7118 7.72533 29.8718 6.904 30.1918 6.264C30.5224 5.624 30.9704 5.14933 31.5358 4.84C32.1011 4.52 32.7464 4.36 33.4718 4.36C34.3144 4.36 35.0558 4.54133 35.6958 4.904C36.3464 5.26667 36.8584 5.77333 37.2318 6.424C37.6158 7.07467 37.8078 7.84267 37.8078 8.728C37.8078 9.61333 37.6158 10.3867 37.2318 11.048C36.8584 11.6987 36.3464 12.2053 35.6958 12.568C35.0558 12.9307 34.3144 13.112 33.4718 13.112ZM28.7358 16.104V4.456H30.6398V6.472L30.5758 8.744L30.7358 11.016V16.104H28.7358ZM33.2478 11.4C33.7278 11.4 34.1544 11.2933 34.5278 11.08C34.9118 10.8667 35.2158 10.5573 35.4398 10.152C35.6638 9.74667 35.7758 9.272 35.7758 8.728C35.7758 8.17333 35.6638 7.69867 35.4398 7.304C35.2158 6.89867 34.9118 6.58933 34.5278 6.376C34.1544 6.16267 33.7278 6.056 33.2478 6.056C32.7678 6.056 32.3358 6.16267 31.9518 6.376C31.5678 6.58933 31.2638 6.89867 31.0398 7.304C30.8158 7.69867 30.7038 8.17333 30.7038 8.728C30.7038 9.272 30.8158 9.74667 31.0398 10.152C31.2638 10.5573 31.5678 10.8667 31.9518 11.08C32.3358 11.2933 32.7678 11.4 33.2478 11.4ZM40.1845 13V4.456H42.1845V13H40.1845ZM41.1925 3.048C40.8192 3.048 40.5098 2.93067 40.2645 2.696C40.0298 2.46133 39.9125 2.17867 39.9125 1.848C39.9125 1.50667 40.0298 1.224 40.2645 0.999999C40.5098 0.765333 40.8192 0.648 41.1925 0.648C41.5658 0.648 41.8698 0.76 42.1045 0.983999C42.3498 1.19733 42.4725 1.46933 42.4725 1.8C42.4725 2.152 42.3552 2.45067 42.1205 2.696C41.8858 2.93067 41.5765 3.048 41.1925 3.048ZM49.3055 13.112C48.3562 13.112 47.5242 12.9253 46.8095 12.552C46.1055 12.168 45.5562 11.6453 45.1615 10.984C44.7775 10.3227 44.5855 9.57067 44.5855 8.728C44.5855 7.87467 44.7722 7.12267 45.1455 6.472C45.5295 5.81067 46.0522 5.29333 46.7135 4.92C47.3855 4.54667 48.1482 4.36 49.0015 4.36C49.8335 4.36 50.5748 4.54133 51.2255 4.904C51.8762 5.26667 52.3882 5.77867 52.7615 6.44C53.1348 7.10133 53.3215 7.88 53.3215 8.776C53.3215 8.86133 53.3162 8.95733 53.3055 9.064C53.3055 9.17067 53.3002 9.272 53.2895 9.368H46.1695V8.04H52.2335L51.4495 8.456C51.4602 7.96533 51.3588 7.53333 51.1455 7.16C50.9322 6.78667 50.6388 6.49333 50.2655 6.28C49.9028 6.06667 49.4815 5.96 49.0015 5.96C48.5108 5.96 48.0788 6.06667 47.7055 6.28C47.3428 6.49333 47.0548 6.792 46.8415 7.176C46.6388 7.54933 46.5375 7.992 46.5375 8.504V8.824C46.5375 9.336 46.6548 9.78933 46.8895 10.184C47.1242 10.5787 47.4548 10.8827 47.8815 11.096C48.3082 11.3093 48.7988 11.416 49.3535 11.416C49.8335 11.416 50.2655 11.3413 50.6495 11.192C51.0335 11.0427 51.3748 10.808 51.6735 10.488L52.7455 11.72C52.3615 12.168 51.8762 12.5147 51.2895 12.76C50.7135 12.9947 50.0522 13.112 49.3055 13.112ZM54.9405 13V11.736L60.2045 5.368L60.5725 6.056H55.0365V4.456H62.1725V5.72L56.9085 12.088L56.5085 11.4H62.3165V13H54.9405ZM69.9041 13V11.272L69.7921 10.904V7.88C69.7921 7.29333 69.6161 6.84 69.2641 6.52C68.9121 6.18933 68.3788 6.024 67.6641 6.024C67.1841 6.024 66.7095 6.09867 66.2401 6.248C65.7815 6.39733 65.3921 6.60533 65.0721 6.872L64.2881 5.416C64.7468 5.064 65.2908 4.80267 65.9201 4.632C66.5601 4.45067 67.2215 4.36 67.9041 4.36C69.1415 4.36 70.0961 4.65867 70.7681 5.256C71.4508 5.84267 71.7921 6.75467 71.7921 7.992V13H69.9041ZM67.2161 13.112C66.5761 13.112 66.0161 13.0053 65.5361 12.792C65.0561 12.568 64.6828 12.264 64.4161 11.88C64.1601 11.4853 64.0321 11.0427 64.0321 10.552C64.0321 10.072 64.1441 9.64 64.3681 9.256C64.6028 8.872 64.9815 8.568 65.5041 8.344C66.0268 8.12 66.7201 8.008 67.5841 8.008H70.0641V9.336H67.7281C67.0455 9.336 66.5868 9.448 66.3521 9.672C66.1175 9.88533 66.0001 10.152 66.0001 10.472C66.0001 10.8347 66.1441 11.1227 66.4321 11.336C66.7201 11.5493 67.1201 11.656 67.6321 11.656C68.1228 11.656 68.5601 11.544 68.9441 11.32C69.3388 11.096 69.6215 10.7653 69.7921 10.328L70.1281 11.528C69.9361 12.0293 69.5895 12.4187 69.0881 12.696C68.5975 12.9733 67.9735 13.112 67.2161 13.112ZM85.0047 13V11.272L84.8927 10.904V7.88C84.8927 7.29333 84.7167 6.84 84.3647 6.52C84.0127 6.18933 83.4794 6.024 82.7647 6.024C82.2847 6.024 81.8101 6.09867 81.3407 6.248C80.8821 6.39733 80.4927 6.60533 80.1727 6.872L79.3887 5.416C79.8474 5.064 80.3914 4.80267 81.0207 4.632C81.6607 4.45067 82.3221 4.36 83.0047 4.36C84.2421 4.36 85.1967 4.65867 85.8687 5.256C86.5514 5.84267 86.8927 6.75467 86.8927 7.992V13H85.0047ZM82.3167 13.112C81.6767 13.112 81.1167 13.0053 80.6367 12.792C80.1567 12.568 79.7834 12.264 79.5167 11.88C79.2607 11.4853 79.1327 11.0427 79.1327 10.552C79.1327 10.072 79.2447 9.64 79.4687 9.256C79.7034 8.872 80.0821 8.568 80.6047 8.344C81.1274 8.12 81.8207 8.008 82.6847 8.008H85.1647V9.336H82.8287C82.1461 9.336 81.6874 9.448 81.4527 9.672C81.2181 9.88533 81.1007 10.152 81.1007 10.472C81.1007 10.8347 81.2447 11.1227 81.5327 11.336C81.8207 11.5493 82.2207 11.656 82.7327 11.656C83.2234 11.656 83.6607 11.544 84.0447 11.32C84.4394 11.096 84.7221 10.7653 84.8927 10.328L85.2287 11.528C85.0367 12.0293 84.6901 12.4187 84.1887 12.696C83.6981 12.9733 83.0741 13.112 82.3167 13.112ZM94.7875 4.36C95.4702 4.36 96.0782 4.49333 96.6115 4.76C97.1555 5.02667 97.5822 5.43733 97.8915 5.992C98.2008 6.536 98.3555 7.24 98.3555 8.104V13H96.3555V8.36C96.3555 7.60267 96.1742 7.03733 95.8115 6.664C95.4595 6.29067 94.9635 6.104 94.3235 6.104C93.8542 6.104 93.4382 6.2 93.0755 6.392C92.7128 6.584 92.4302 6.872 92.2275 7.256C92.0355 7.62933 91.9395 8.104 91.9395 8.68V13H89.9395V1.128H91.9395V6.76L91.5075 6.056C91.8062 5.512 92.2382 5.096 92.8035 4.808C93.3795 4.50933 94.0408 4.36 94.7875 4.36ZM105.228 13.112C104.354 13.112 103.575 12.9253 102.892 12.552C102.21 12.168 101.671 11.6453 101.276 10.984C100.882 10.3227 100.684 9.57067 100.684 8.728C100.684 7.87467 100.882 7.12267 101.276 6.472C101.671 5.81067 102.21 5.29333 102.892 4.92C103.575 4.54667 104.354 4.36 105.228 4.36C106.114 4.36 106.898 4.54667 107.58 4.92C108.274 5.29333 108.812 5.80533 109.196 6.456C109.591 7.10667 109.788 7.864 109.788 8.728C109.788 9.57067 109.591 10.3227 109.196 10.984C108.812 11.6453 108.274 12.168 107.58 12.552C106.898 12.9253 106.114 13.112 105.228 13.112ZM105.228 11.4C105.719 11.4 106.156 11.2933 106.54 11.08C106.924 10.8667 107.223 10.5573 107.436 10.152C107.66 9.74667 107.772 9.272 107.772 8.728C107.772 8.17333 107.66 7.69867 107.436 7.304C107.223 6.89867 106.924 6.58933 106.54 6.376C106.156 6.16267 105.724 6.056 105.244 6.056C104.754 6.056 104.316 6.16267 103.932 6.376C103.559 6.58933 103.26 6.89867 103.036 7.304C102.812 7.69867 102.7 8.17333 102.7 8.728C102.7 9.272 102.812 9.74667 103.036 10.152C103.26 10.5573 103.559 10.8667 103.932 11.08C104.316 11.2933 104.748 11.4 105.228 11.4ZM112.181 13V4.456H114.085V6.808L113.861 6.12C114.117 5.544 114.517 5.10667 115.061 4.808C115.615 4.50933 116.303 4.36 117.125 4.36V6.264C117.039 6.24267 116.959 6.232 116.885 6.232C116.81 6.22133 116.735 6.216 116.661 6.216C115.903 6.216 115.301 6.44 114.853 6.888C114.405 7.32533 114.181 7.98133 114.181 8.856V13H112.181ZM123.956 13V11.272L123.844 10.904V7.88C123.844 7.29333 123.668 6.84 123.316 6.52C122.964 6.18933 122.431 6.024 121.716 6.024C121.236 6.024 120.761 6.09867 120.292 6.248C119.833 6.39733 119.444 6.60533 119.124 6.872L118.34 5.416C118.799 5.064 119.343 4.80267 119.972 4.632C120.612 4.45067 121.273 4.36 121.956 4.36C123.193 4.36 124.148 4.65867 124.82 5.256C125.503 5.84267 125.844 6.75467 125.844 7.992V13H123.956ZM121.268 13.112C120.628 13.112 120.068 13.0053 119.588 12.792C119.108 12.568 118.735 12.264 118.468 11.88C118.212 11.4853 118.084 11.0427 118.084 10.552C118.084 10.072 118.196 9.64 118.42 9.256C118.655 8.872 119.033 8.568 119.556 8.344C120.079 8.12 120.772 8.008 121.636 8.008H124.116V9.336H121.78C121.097 9.336 120.639 9.448 120.404 9.672C120.169 9.88533 120.052 10.152 120.052 10.472C120.052 10.8347 120.196 11.1227 120.484 11.336C120.772 11.5493 121.172 11.656 121.684 11.656C122.175 11.656 122.612 11.544 122.996 11.32C123.391 11.096 123.673 10.7653 123.844 10.328L124.18 11.528C123.988 12.0293 123.641 12.4187 123.14 12.696C122.649 12.9733 122.025 13.112 121.268 13.112Z" fill="white"/>
</svg>
